<svg width="31" height="30" viewBox="0 0 31 30" fill="none" opacity='1' xmlns="http://www.w3.org/2000/svg">
<path fill-rule="evenodd" clip-rule="evenodd" d="M25.6634 4.32453C26.036 4.33785 26.4089 4.35117 26.7815 4.36449C27.0902 4.36449 27.497 4.33611 27.7399 4.40442C28.2457 4.40442 28.7517 4.40442 29.2575 4.40442C29.6611 4.54938 29.9724 4.85787 30.0163 5.36487C30.0029 5.36487 29.9896 5.36487 29.9763 5.36487C29.963 5.44446 29.9497 5.52459 29.9363 5.60448C29.9231 5.60448 29.9097 5.60448 29.8965 5.60448C29.8965 5.64498 29.8965 5.68464 29.8965 5.72487C29.8699 5.73789 29.8432 5.75148 29.8165 5.7648C29.8165 5.79141 29.8165 5.81805 29.8165 5.84466C29.4972 6.15141 29.1776 6.45816 28.8581 6.76461C27.9265 7.71144 26.9944 8.6586 26.0627 9.60516C24.6385 9.60516 23.2139 9.60516 21.7897 9.60516C21.4703 9.93825 21.1507 10.2719 20.8312 10.605C20.7647 10.6585 20.6981 10.7117 20.6315 10.7653C20.3538 11.1499 20.0028 11.4349 19.6732 11.7651C19.2339 12.2188 18.7945 12.672 18.3553 13.1257C18.0895 13.3179 17.8647 13.537 17.6364 13.7656C16.9576 14.4589 16.2786 15.1523 15.5998 15.8456C15.5599 15.8456 15.5199 15.8456 15.48 15.8456C15.4667 15.8723 15.4534 15.8992 15.44 15.9258C15.3735 15.9391 15.307 15.9524 15.2404 15.9657C15.2404 15.979 15.2404 15.9924 15.2404 16.006C15.0085 16.0801 14.5904 15.9194 14.4816 15.8456C14.4151 15.7661 14.3485 15.6859 14.2819 15.6058C14.2553 15.5924 14.2286 15.5791 14.202 15.5658C14.1888 15.5126 14.1754 15.459 14.1622 15.4058C14.1488 15.4058 14.1355 15.4058 14.1222 15.4058C14.1222 15.3795 14.1222 15.3526 14.1222 15.3259C14.1089 15.3259 14.0956 15.3259 14.0823 15.3259C14.0823 15.2993 14.0823 15.2727 14.0823 15.2461C14.0689 15.2461 14.0557 15.2461 14.0423 15.2461C14.0423 15.0857 14.0423 14.9257 14.0423 14.7657C14.0557 14.7657 14.0689 14.7657 14.0823 14.7657C14.0956 14.7124 14.1089 14.6589 14.1222 14.6056C14.1355 14.6056 14.1488 14.6056 14.1622 14.6056C14.1622 14.5657 14.1622 14.5258 14.1622 14.4856C14.1888 14.4725 14.2154 14.4589 14.242 14.4459C14.242 14.419 14.242 14.3924 14.242 14.3658C14.2553 14.3658 14.2686 14.3658 14.2819 14.3658C14.3393 14.2949 14.3726 14.2697 14.4017 14.1658C14.4284 14.1658 14.455 14.1658 14.4816 14.1658C14.5098 14.0419 14.5595 13.9956 14.6812 13.9655C14.6812 13.9389 14.6812 13.9123 14.6812 13.8854C14.7079 13.8854 14.7346 13.8854 14.7612 13.8854C14.7612 13.8588 14.7612 13.8321 14.7612 13.8055C14.7878 13.8055 14.8144 13.8055 14.841 13.8055C14.841 13.7792 14.841 13.752 14.841 13.7257C14.8676 13.7257 14.8943 13.7257 14.9209 13.7257C14.9209 13.699 14.9209 13.6724 14.9209 13.6458C14.9475 13.6458 14.9741 13.6458 15.0007 13.6458C15.0296 13.5353 15.0119 13.5561 15.1205 13.5257C15.1205 13.4988 15.1205 13.4722 15.1205 13.4455C15.1472 13.4455 15.1738 13.4455 15.2004 13.4455C15.2004 13.4189 15.2004 13.3926 15.2004 13.3654C15.227 13.3654 15.2537 13.3654 15.2803 13.3654C15.2803 13.3391 15.2803 13.3124 15.2803 13.2858C15.307 13.2858 15.3336 13.2858 15.3602 13.2858C15.3602 13.2592 15.3602 13.2322 15.3602 13.2056C15.3868 13.2056 15.4134 13.2056 15.44 13.2056C15.44 13.179 15.44 13.1524 15.44 13.1257C15.4667 13.1257 15.4933 13.1257 15.5199 13.1257C15.5488 13.0152 15.5311 13.0361 15.6397 13.0054C15.6397 12.9791 15.6397 12.9518 15.6397 12.9255C15.6663 12.9255 15.6929 12.9255 15.7196 12.9255C15.7196 12.8989 15.7196 12.8723 15.7196 12.8456C15.7462 12.8456 15.7728 12.8456 15.7994 12.8456C15.7994 12.8187 15.7994 12.7921 15.7994 12.7655C15.8261 12.7655 15.8527 12.7655 15.8794 12.7655C15.8794 12.7389 15.8794 12.7122 15.8794 12.6853C15.906 12.6853 15.9326 12.6853 15.9592 12.6853C15.9592 12.6587 15.9592 12.6321 15.9592 12.6055C15.9858 12.6055 16.0124 12.6055 16.0391 12.6055C16.0679 12.4949 16.0502 12.516 16.1589 12.4856C16.1589 12.459 16.1589 12.4321 16.1589 12.4055C16.1855 12.4055 16.2121 12.4055 16.2387 12.4055C16.2387 12.3789 16.2387 12.3523 16.2387 12.3256C16.2653 12.3256 16.292 12.3256 16.3186 12.3256C16.3186 12.2987 16.3186 12.2721 16.3186 12.2455C16.3452 12.2455 16.3718 12.2455 16.3985 12.2455C16.3985 12.2188 16.3985 12.1922 16.3985 12.1653C16.4251 12.1653 16.4518 12.1653 16.4784 12.1653C16.4784 12.1387 16.4784 12.112 16.4784 12.0854C16.505 12.0854 16.5316 12.0854 16.5582 12.0854C16.5871 11.9749 16.5694 11.996 16.6781 11.9656C16.6781 11.939 16.6781 11.9121 16.6781 11.8855C16.7047 11.8855 16.7313 11.8855 16.7579 11.8855C16.7579 11.8589 16.7579 11.8322 16.7579 11.8056C16.7845 11.8056 16.8111 11.8056 16.8378 11.8056C16.8903 11.6077 17.2545 11.3478 17.3969 11.2051C17.3969 11.1921 17.3969 11.1785 17.3969 11.1655C17.8361 10.7384 18.2755 10.3118 18.7147 9.885C18.8522 9.74724 19.0797 9.41736 19.2738 9.36525C19.2738 9.33864 19.2738 9.31203 19.2738 9.28509C19.3004 9.28509 19.327 9.28509 19.3537 9.28509C19.3537 9.25848 19.3537 9.23187 19.3537 9.20523C19.3803 9.20523 19.4069 9.20523 19.4335 9.20523C19.4335 9.17862 19.4335 9.15171 19.4335 9.12507C19.4601 9.12507 19.4867 9.12507 19.5134 9.12507C19.5422 9.01452 19.5245 9.03537 19.6332 9.00468C19.6332 8.97807 19.6332 8.95173 19.6332 8.92512C19.6598 8.92512 19.6864 8.92512 19.713 8.92512C19.713 8.89848 19.713 8.87157 19.713 8.84496C19.7396 8.84496 19.7663 8.84496 19.7929 8.84496C19.7929 8.81832 19.7929 8.79171 19.7929 8.7651C19.8196 8.7651 19.8462 8.7651 19.8728 8.7651C19.8728 8.73816 19.8728 8.71155 19.8728 8.68494C19.8994 8.68494 19.9261 8.68494 19.9527 8.68494C19.9527 8.6583 19.9527 8.63139 19.9527 8.60478C20.063 8.57583 20.0421 8.59377 20.0725 8.48496C20.0991 8.48496 20.1257 8.48496 20.1524 8.48496C20.1524 8.45835 20.1524 8.43171 20.1524 8.4051C20.179 8.4051 20.2056 8.4051 20.2322 8.4051C20.2322 8.37846 20.2322 8.35155 20.2322 8.32494C20.2588 8.32494 20.2854 8.32494 20.3121 8.32494C20.3121 8.29833 20.3121 8.27169 20.3121 8.24478C20.3387 8.24478 20.3654 8.24478 20.392 8.24478C20.4707 7.80231 20.4319 7.19316 20.4319 6.68472C20.4319 5.75148 20.4319 4.81764 20.4319 3.8844C20.5289 3.82797 20.5623 3.73449 20.6315 3.68472C20.9719 3.43818 21.2189 3.13578 21.5102 2.84406C22.189 2.17764 22.868 1.51089 23.5468 0.84417C23.7331 0.64449 23.9196 0.44394 24.1058 0.24429C24.1326 0.24429 24.1592 0.24429 24.1858 0.24429C24.1991 0.21735 24.2124 0.19074 24.2257 0.16413C24.2523 0.16413 24.2789 0.16413 24.3055 0.16413C24.3189 0.13749 24.3322 0.11088 24.3455 0.08397C24.4132 0.0423 24.7273 -0.0399 24.8647 0.00408C24.8647 0.0174 24.8647 0.03072 24.8647 0.04404C24.9046 0.04404 24.9445 0.04404 24.9845 0.04404C24.9845 0.05733 24.9845 0.07065 24.9845 0.08397C25.0111 0.08397 25.0377 0.08397 25.0643 0.08397C25.0777 0.11088 25.091 0.13749 25.1043 0.16413C25.1442 0.16413 25.1842 0.16413 25.224 0.16413C25.224 0.17742 25.224 0.19074 25.224 0.20406C25.3039 0.2709 25.3838 0.33717 25.4637 0.40431C25.4637 0.43092 25.4637 0.45756 25.4637 0.48417C25.477 0.48417 25.4903 0.48417 25.5037 0.48417C25.5037 0.51108 25.5037 0.53772 25.5037 0.56433C25.5169 0.56433 25.5303 0.56433 25.5435 0.56433C25.5435 0.60399 25.5435 0.64449 25.5435 0.68415C25.5569 0.68415 25.5702 0.68415 25.5835 0.68415C25.5835 0.91071 25.5835 1.1373 25.5835 1.36419C25.652 1.6113 25.5532 2.03061 25.6234 2.28441C25.6367 2.28441 25.65 2.28441 25.6634 2.28441C25.6634 2.96388 25.6634 3.64422 25.6634 4.32453ZM18.3153 6.08484C18.1955 6.04491 18.0758 6.00468 17.9559 5.96475C17.9559 5.95143 17.9559 5.93814 17.9559 5.92482C17.8761 5.9115 17.7962 5.89818 17.7163 5.88459C17.7163 5.87127 17.7163 5.85798 17.7163 5.84466C17.6897 5.84466 17.6631 5.84466 17.6364 5.84466C17.6364 5.83164 17.6364 5.81805 17.6364 5.805C17.5566 5.79141 17.4767 5.77839 17.3969 5.7648C17.3969 5.75148 17.3969 5.73789 17.3969 5.72487C17.3569 5.72487 17.3169 5.72487 17.2771 5.72487C17.2771 5.71125 17.2771 5.69823 17.2771 5.68464C17.1839 5.67162 17.0907 5.658 16.9975 5.64498C16.9975 5.63139 16.9975 5.61807 16.9975 5.60448C16.9044 5.59146 16.8111 5.57784 16.7179 5.56482C16.7179 5.55123 16.7179 5.53821 16.7179 5.52459C16.1988 5.43141 15.6796 5.33796 15.1605 5.24448C14.9875 5.24448 14.8144 5.24448 14.6413 5.24448C14.6413 5.23146 14.6413 5.21787 14.6413 5.20455C14.4342 5.14668 13.5187 5.20107 13.3635 5.24448C13.1904 5.24448 13.0173 5.24448 12.8443 5.24448C12.8443 5.25807 12.8443 5.27112 12.8443 5.28471C12.7378 5.28471 12.6312 5.28471 12.5248 5.28471C12.5248 5.29773 12.5248 5.31132 12.5248 5.32434C12.4316 5.32434 12.3385 5.32434 12.2453 5.32434C12.2453 5.33796 12.2453 5.35125 12.2453 5.36487C12.1787 5.36487 12.1122 5.36487 12.0456 5.36487C12.0456 5.37789 12.0456 5.39148 12.0456 5.4045C11.9658 5.4045 11.8859 5.4045 11.8059 5.4045C11.8059 5.41782 11.8059 5.43141 11.8059 5.44446C11.7527 5.44446 11.6995 5.44446 11.6462 5.44446C11.6462 5.45805 11.6462 5.47107 11.6462 5.48466C11.5264 5.49798 11.4066 5.51157 11.2868 5.52459C10.8076 5.68464 10.3283 5.84466 9.84918 6.00468C9.84918 6.018 9.84918 6.03159 9.84918 6.04491C9.79596 6.05823 9.74265 6.07125 9.68946 6.08484C9.68946 6.09786 9.68946 6.11148 9.68946 6.1245C9.66285 6.1245 9.63624 6.1245 9.60954 6.1245C9.60954 6.13809 9.60954 6.15141 9.60954 6.165C9.56967 6.165 9.52971 6.165 9.48975 6.165C9.48975 6.17802 9.48975 6.19164 9.48975 6.20466C9.40992 6.23127 9.33 6.25788 9.25017 6.28482C9.25017 6.29811 9.25017 6.31143 9.25017 6.32475C9.22359 6.32475 9.19686 6.32475 9.17028 6.32475C9.17028 6.33804 9.17028 6.35136 9.17028 6.36468C9.14367 6.36468 9.11706 6.36468 9.09045 6.36468C9.09045 6.378 9.09045 6.39129 9.09045 6.40461C9.01053 6.43152 8.9307 6.45816 8.85078 6.48477C8.83752 6.51138 8.82417 6.53802 8.81082 6.56493C8.73099 6.59154 8.65107 6.61818 8.57127 6.64479C8.55792 6.67143 8.54466 6.69804 8.53131 6.72465C8.47809 6.73797 8.42478 6.75129 8.37156 6.76461C8.3583 6.79122 8.34495 6.81813 8.3316 6.84477C8.27838 6.85806 8.22516 6.87138 8.17185 6.8847C8.17185 6.89799 8.17185 6.91131 8.17185 6.92463C8.13201 6.93822 8.09205 6.95154 8.05209 6.96486C8.03883 6.99117 8.02548 7.01781 8.01213 7.04442C7.98552 7.04442 7.95891 7.04442 7.9323 7.04442C7.90569 7.08495 7.87908 7.12458 7.85247 7.16481C7.82577 7.16481 7.79916 7.16481 7.77255 7.16481C7.7592 7.19145 7.74594 7.21836 7.73259 7.24497C7.70598 7.24497 7.6794 7.24497 7.65279 7.24497C7.62618 7.28463 7.59948 7.32483 7.57287 7.36476C7.54626 7.36476 7.51965 7.36476 7.49304 7.36476C7.46643 7.40472 7.43973 7.44492 7.41312 7.48488C7.38651 7.48488 7.3599 7.48488 7.33329 7.48488C7.29333 7.5381 7.25337 7.59135 7.21353 7.6449C7.1868 7.6449 7.16022 7.6449 7.13361 7.6449C7.06704 7.72476 7.00047 7.80492 6.9339 7.88508C6.90729 7.88508 6.88068 7.88508 6.85407 7.88508C6.76089 7.99185 6.66774 8.09835 6.57456 8.20485C6.34824 8.41812 6.12195 8.63169 5.89563 8.84496C5.89563 8.87157 5.89563 8.89848 5.89563 8.92512C5.8158 8.99166 5.73588 9.05823 5.65599 9.12507C5.65599 9.15171 5.65599 9.17862 5.65599 9.20523C5.60277 9.24489 5.54955 9.28509 5.49624 9.32505C5.49624 9.35166 5.49624 9.37827 5.49624 9.40521C5.45637 9.43182 5.41641 9.45873 5.37645 9.48537C5.37645 9.51198 5.37645 9.53859 5.37645 9.56523C5.33649 9.59214 5.29662 9.61875 5.25666 9.64539C5.25666 9.67173 5.25666 9.69864 5.25666 9.72525C5.23005 9.73857 5.20347 9.75186 5.17674 9.76518C5.17674 9.79182 5.17674 9.81843 5.17674 9.84534C5.1369 9.87198 5.09694 9.89859 5.05698 9.9252C5.05698 9.95184 5.05698 9.97875 5.05698 10.0054C5.03037 10.0184 5.00376 10.032 4.97715 10.045C4.97715 10.0716 4.97715 10.0985 4.97715 10.1252C4.95054 10.1388 4.92384 10.1518 4.89723 10.1654C4.88397 10.2184 4.87062 10.2719 4.85727 10.3249C4.83066 10.3384 4.80405 10.3518 4.77744 10.3654C4.76409 10.4186 4.75083 10.4719 4.73748 10.5254C4.71087 10.5384 4.68429 10.552 4.65768 10.565C4.63107 10.6452 4.60437 10.7251 4.57776 10.8052C4.55115 10.8185 4.52454 10.8318 4.49793 10.8451C4.49793 10.8718 4.49793 10.8987 4.49793 10.9253C4.48458 10.9253 4.47132 10.9253 4.45797 10.9253C4.45797 10.952 4.45797 10.9786 4.45797 11.0052C4.44462 11.0052 4.43136 11.0052 4.41801 11.0052C4.41801 11.0321 4.41801 11.0587 4.41801 11.0853C4.40475 11.0853 4.3914 11.0853 4.37814 11.0853C4.37814 11.112 4.37814 11.1386 4.37814 11.1655C4.36479 11.1655 4.35144 11.1655 4.33818 11.1655C4.33818 11.1921 4.33818 11.2187 4.33818 11.2454C4.32483 11.2454 4.31157 11.2454 4.29822 11.2454C4.27161 11.3255 4.245 11.4051 4.21842 11.4853C4.20507 11.4853 4.19169 11.4853 4.17846 11.4853C4.17846 11.5252 4.17846 11.5654 4.17846 11.6053C4.16511 11.6053 4.15185 11.6053 4.1385 11.6053C4.1385 11.632 4.1385 11.6586 4.1385 11.6855C4.12515 11.6855 4.11189 11.6855 4.09854 11.6855C4.09854 11.7121 4.09854 11.7388 4.09854 11.7651C4.08528 11.7651 4.07193 11.7651 4.05867 11.7651C4.05867 11.7917 4.05867 11.8186 4.05867 11.8453C4.04532 11.8453 4.03197 11.8453 4.01871 11.8453C4.01871 11.8855 4.01871 11.9251 4.01871 11.9656C4.00536 11.9656 3.9921 11.9656 3.97875 11.9656C3.97875 11.9923 3.97875 12.0189 3.97875 12.0455C3.9654 12.0455 3.95214 12.0455 3.93879 12.0455C3.92553 12.1254 3.91218 12.2052 3.89892 12.2851C3.88557 12.2851 3.87222 12.2851 3.85896 12.2851C3.85896 12.3117 3.85896 12.3386 3.85896 12.3653C3.84561 12.3653 3.83235 12.3653 3.819 12.3653C3.68586 12.8456 3.55275 13.3254 3.4197 13.8055C3.393 14.0457 3.36639 14.2856 3.33978 14.5258C3.32652 14.5258 3.31317 14.5258 3.29982 14.5258C3.29982 14.6323 3.29982 14.7391 3.29982 14.8458C3.28656 14.8458 3.27321 14.8458 3.25995 14.8458C3.25995 15.0189 3.25995 15.1925 3.25995 15.3659C3.2466 15.3659 3.23325 15.3659 3.22002 15.3659C3.16221 15.5731 3.21639 16.4907 3.25995 16.6458C3.25995 16.8194 3.25995 16.9928 3.25995 17.1658C3.27321 17.1658 3.28656 17.1658 3.29982 17.1658C3.29982 17.2726 3.29982 17.3794 3.29982 17.4862C3.31317 17.4862 3.32652 17.4862 3.33978 17.4862C3.33978 17.5793 3.33978 17.6728 3.33978 17.766C3.35313 17.766 3.36639 17.766 3.37974 17.766C3.37974 17.8325 3.37974 17.8994 3.37974 17.966C3.393 17.966 3.40635 17.966 3.4197 17.966C3.4197 18.0461 3.4197 18.1263 3.4197 18.2061C3.43296 18.2061 3.44631 18.2061 3.45957 18.2061C3.45957 18.2596 3.45957 18.3129 3.45957 18.3661C3.47292 18.3661 3.48627 18.3661 3.49953 18.3661C3.49953 18.4327 3.49953 18.4996 3.49953 18.5661C3.51288 18.5661 3.52614 18.5661 3.53949 18.5661C3.53949 18.6193 3.53949 18.6729 3.53949 18.7262C3.55275 18.7262 3.5661 18.7262 3.57945 18.7262C3.59271 18.8196 3.60606 18.9131 3.61932 19.0063C3.63267 19.0063 3.64602 19.0063 3.65928 19.0063C3.65928 19.0462 3.65928 19.0864 3.65928 19.1261C3.67263 19.1261 3.68586 19.1261 3.69924 19.1261C3.69924 19.1796 3.69924 19.2329 3.69924 19.2861C3.71247 19.2861 3.72582 19.2861 3.7392 19.2861C3.7392 19.3263 3.7392 19.3663 3.7392 19.4059C3.75243 19.4059 3.76578 19.4059 3.77904 19.4059C3.77904 19.4464 3.77904 19.486 3.77904 19.5263C3.79239 19.5263 3.80574 19.5263 3.819 19.5263C3.819 19.5662 3.819 19.6064 3.819 19.6461C3.83235 19.6461 3.84561 19.6461 3.85896 19.6461C3.85896 19.6727 3.85896 19.6996 3.85896 19.7262C3.87222 19.7262 3.88557 19.7262 3.89892 19.7262C3.91218 19.8061 3.92553 19.8863 3.93879 19.9664C3.95214 19.9664 3.9654 19.9664 3.97875 19.9664C3.97875 19.9931 3.97875 20.0197 3.97875 20.0463C3.9921 20.0463 4.00536 20.0463 4.01871 20.0463C4.01871 20.0865 4.01871 20.1265 4.01871 20.1664C4.03197 20.1664 4.04532 20.1664 4.05867 20.1664C4.07193 20.2199 4.08528 20.2732 4.09854 20.3264C4.11189 20.3264 4.12515 20.3264 4.1385 20.3264C4.1385 20.3533 4.1385 20.38 4.1385 20.4066C4.15185 20.4066 4.16511 20.4066 4.17846 20.4066C4.17846 20.4462 4.17846 20.4867 4.17846 20.5264C4.19169 20.5264 4.20507 20.5264 4.21842 20.5264C4.245 20.6066 4.27161 20.6864 4.29822 20.7666C4.31157 20.7666 4.32483 20.7666 4.33818 20.7666C4.33818 20.7932 4.33818 20.8198 4.33818 20.8464C4.35144 20.8464 4.36479 20.8464 4.37814 20.8464C4.37814 20.8733 4.37814 20.9 4.37814 20.9266C4.3914 20.9266 4.40475 20.9266 4.41801 20.9266C4.44462 21.0064 4.47132 21.0863 4.49793 21.1665C4.52454 21.1798 4.55115 21.1931 4.57776 21.2064C4.60437 21.2866 4.63107 21.3662 4.65768 21.4463C4.68429 21.4599 4.71087 21.4729 4.73748 21.4865C4.75083 21.5401 4.76409 21.5933 4.77744 21.6466C4.80405 21.6599 4.83066 21.6735 4.85727 21.6865C4.87062 21.7397 4.88397 21.7933 4.89723 21.8465C4.92384 21.8596 4.95054 21.8731 4.97715 21.8862C4.97715 21.9131 4.97715 21.9397 4.97715 21.9666C4.99041 21.9666 5.00376 21.9666 5.01702 21.9666C5.03037 22.0066 5.04372 22.0465 5.05698 22.0867C5.08359 22.1 5.11029 22.1133 5.1369 22.1266C5.1369 22.1533 5.1369 22.1799 5.1369 22.2068C5.17674 22.2334 5.2167 22.2601 5.25666 22.2867C5.25666 22.3133 5.25666 22.3402 5.25666 22.3668C5.29662 22.3935 5.33649 22.4201 5.37645 22.4467C5.37645 22.4736 5.37645 22.5002 5.37645 22.5269C5.41641 22.5532 5.45637 22.5798 5.49624 22.6067C5.49624 22.6334 5.49624 22.66 5.49624 22.6866C5.54955 22.7268 5.60277 22.7668 5.65599 22.8067C5.65599 22.8333 5.65599 22.8602 5.65599 22.8869C5.73588 22.9531 5.8158 23.02 5.89563 23.0865C5.89563 23.1134 5.89563 23.1401 5.89563 23.1667C6.12195 23.38 6.34824 23.5932 6.57456 23.8068C6.66774 23.9136 6.76089 24.0204 6.85407 24.1266C6.88068 24.1266 6.90729 24.1266 6.9339 24.1266C7.00047 24.2067 7.06704 24.2869 7.13361 24.3668C7.16022 24.3668 7.1868 24.3668 7.21353 24.3668C7.25337 24.4203 7.29333 24.4735 7.33329 24.5268C7.3599 24.5268 7.38651 24.5268 7.41312 24.5268C7.43973 24.5673 7.46643 24.6069 7.49304 24.6469C7.51965 24.6469 7.54626 24.6469 7.57287 24.6469C7.59948 24.6871 7.62618 24.727 7.65279 24.767C7.6794 24.767 7.70598 24.767 7.73259 24.767C7.7592 24.8069 7.7859 24.8471 7.81251 24.8868C7.83912 24.8868 7.86573 24.8868 7.89234 24.8868C7.90569 24.9134 7.91895 24.9403 7.9323 24.9669C7.95891 24.9669 7.98552 24.9669 8.01213 24.9669C8.02548 24.9935 8.03883 25.0202 8.05209 25.0468C8.09205 25.0601 8.13201 25.0737 8.17185 25.087C8.17185 25.1003 8.17185 25.1136 8.17185 25.1269C8.22516 25.1403 8.27838 25.1536 8.3316 25.1669C8.34495 25.1935 8.3583 25.2204 8.37156 25.247C8.42478 25.2604 8.47809 25.2737 8.53131 25.287C8.54466 25.3133 8.55792 25.3402 8.57127 25.3669C8.65107 25.3935 8.73099 25.4201 8.81082 25.4467C8.82417 25.4736 8.83752 25.5002 8.85078 25.5269C8.87739 25.5269 8.90409 25.5269 8.9307 25.5269C8.9307 25.5402 8.9307 25.5535 8.9307 25.5668C8.95731 25.5668 8.98392 25.5668 9.01053 25.5668C9.01053 25.5801 9.01053 25.5937 9.01053 25.607C9.03714 25.607 9.06384 25.607 9.09045 25.607C9.09045 25.6204 9.09045 25.6337 9.09045 25.647C9.11706 25.647 9.14367 25.647 9.17028 25.647C9.17028 25.6603 9.17028 25.6736 9.17028 25.6869C9.19686 25.6869 9.22359 25.6869 9.25017 25.6869C9.25017 25.6999 9.25017 25.7135 9.25017 25.7268C9.27678 25.7268 9.30339 25.7268 9.33 25.7268C9.33 25.7404 9.33 25.7535 9.33 25.7671C9.40992 25.7937 9.48975 25.8203 9.56967 25.8469C9.56967 25.8602 9.56967 25.8738 9.56967 25.8869C9.63615 25.9005 9.70281 25.9135 9.76926 25.9271C9.76926 25.9404 9.76926 25.9537 9.76926 25.967C9.79587 25.967 9.82257 25.967 9.84918 25.967C9.84918 25.9803 9.84918 25.9937 9.84918 26.0072C9.88914 26.0072 9.92901 26.0072 9.96897 26.0072C9.96897 26.0206 9.96897 26.0339 9.96897 26.0472C9.99558 26.0472 10.0222 26.0472 10.0489 26.0472C10.0489 26.0605 10.0489 26.0738 10.0489 26.0871C10.1287 26.1004 10.2086 26.1134 10.2884 26.1271C10.2884 26.1406 10.2884 26.154 10.2884 26.167C10.315 26.167 10.3417 26.167 10.3684 26.167C10.3684 26.1806 10.3684 26.1936 10.3684 26.2072C10.4881 26.2338 10.6079 26.2605 10.7277 26.2874C10.7277 26.3004 10.7277 26.314 10.7277 26.327C10.781 26.327 10.8342 26.327 10.8875 26.327C10.8875 26.3406 10.8875 26.3537 10.8875 26.3672C10.9274 26.3672 10.9674 26.3672 11.0073 26.3672C11.0073 26.3803 11.0073 26.3938 11.0073 26.4072C11.1004 26.4208 11.1937 26.4338 11.2868 26.4474C11.2868 26.4604 11.2868 26.474 11.2868 26.487C11.3401 26.487 11.3933 26.487 11.4466 26.487C11.4466 26.5007 11.4466 26.5137 11.4466 26.527C11.5664 26.5406 11.6861 26.5536 11.8059 26.5672C11.8059 26.5802 11.8059 26.5938 11.8059 26.6068C11.8859 26.6068 11.9658 26.6068 12.0456 26.6068C12.0456 26.6204 12.0456 26.6335 12.0456 26.6471C12.1122 26.6471 12.1787 26.6471 12.2453 26.6471C12.2453 26.6604 12.2453 26.674 12.2453 26.687C12.3385 26.687 12.4316 26.687 12.5248 26.687C12.5248 26.7006 12.5248 26.7136 12.5248 26.7272C12.8043 26.7403 13.084 26.7539 13.3635 26.7669C13.3635 26.7805 13.3635 26.7938 13.3635 26.8074C13.5707 26.865 14.4861 26.8109 14.6413 26.7669C14.9208 26.7539 15.2004 26.7403 15.48 26.7272C15.48 26.7136 15.48 26.7006 15.48 26.687C15.5731 26.687 15.6663 26.687 15.7595 26.687C15.7595 26.674 15.7595 26.6604 15.7595 26.6471C15.8261 26.6471 15.8926 26.6471 15.9592 26.6471C15.9592 26.6335 15.9592 26.6204 15.9592 26.6068C16.0391 26.6068 16.1189 26.6068 16.1988 26.6068C16.1988 26.5938 16.1988 26.5802 16.1988 26.5672C16.252 26.5672 16.3053 26.5672 16.3586 26.5672C16.3586 26.5536 16.3586 26.5406 16.3586 26.527C16.4784 26.5137 16.5982 26.5007 16.7179 26.487C16.7179 26.474 16.7179 26.4604 16.7179 26.4474C16.7579 26.4474 16.7978 26.4474 16.8378 26.4474C16.8378 26.4338 16.8378 26.4208 16.8378 26.4072C16.891 26.4072 16.9442 26.4072 16.9975 26.4072C16.9975 26.3938 16.9975 26.3803 16.9975 26.3672C17.0374 26.3672 17.0774 26.3672 17.1173 26.3672C17.1173 26.3537 17.1173 26.3406 17.1173 26.327C17.1705 26.327 17.2237 26.327 17.2771 26.327C17.2771 26.314 17.2771 26.3004 17.2771 26.2874C17.3169 26.2874 17.3569 26.2874 17.3969 26.2874C17.3969 26.2738 17.3969 26.2605 17.3969 26.2468C17.4368 26.2468 17.4768 26.2468 17.5166 26.2468C17.5166 26.2338 17.5166 26.2202 17.5166 26.2072C17.5566 26.2072 17.5966 26.2072 17.6364 26.2072C17.6364 26.1936 17.6364 26.1806 17.6364 26.167C17.6631 26.167 17.6897 26.167 17.7163 26.167C17.7163 26.154 17.7163 26.1406 17.7163 26.1271C17.7962 26.1134 17.8761 26.1004 17.9559 26.0871C17.9559 26.0738 17.9559 26.0605 17.9559 26.0472C17.9826 26.0472 18.0092 26.0472 18.0358 26.0472C18.0358 26.0339 18.0358 26.0206 18.0358 26.0072C18.0758 26.0072 18.1156 26.0072 18.1556 26.0072C18.1556 25.9937 18.1556 25.9803 18.1556 25.967C18.2088 25.9537 18.2621 25.9404 18.3153 25.9271C18.3153 25.9135 18.3153 25.9005 18.3153 25.8869C18.3419 25.8869 18.3686 25.8869 18.3953 25.8869C18.3953 25.8738 18.3953 25.8602 18.3953 25.8469C18.4351 25.8469 18.4751 25.8469 18.515 25.8469C18.515 25.8333 18.515 25.8203 18.515 25.8067C18.5949 25.7801 18.6748 25.7535 18.7546 25.7268C18.7546 25.7135 18.7546 25.6999 18.7546 25.6869C18.7813 25.6869 18.8079 25.6869 18.8345 25.6869C18.8345 25.6736 18.8345 25.6603 18.8345 25.647C18.8611 25.647 18.8877 25.647 18.9143 25.647C18.9143 25.6337 18.9143 25.6204 18.9143 25.607C18.9943 25.5801 19.0741 25.5535 19.154 25.5269C19.1672 25.5002 19.1806 25.4736 19.1939 25.4467C19.2738 25.4201 19.3537 25.3935 19.4335 25.3669C19.4469 25.3402 19.4601 25.3133 19.4735 25.287C19.5267 25.2737 19.58 25.2604 19.6332 25.247C19.6465 25.2204 19.6598 25.1935 19.6732 25.1669C19.7264 25.1536 19.7796 25.1403 19.8329 25.1269C19.8462 25.1003 19.8595 25.0737 19.8728 25.0468C19.8994 25.0468 19.9261 25.0468 19.9527 25.0468C19.9527 25.0335 19.9527 25.0202 19.9527 25.0069C19.9926 24.9935 20.0325 24.9803 20.0725 24.9669C20.0858 24.9403 20.0991 24.9134 20.1124 24.8868C20.1391 24.8868 20.1656 24.8868 20.1922 24.8868C20.2056 24.8601 20.2189 24.8335 20.2322 24.8069C20.2722 24.7936 20.3121 24.78 20.352 24.767C20.3786 24.727 20.4053 24.6871 20.4319 24.6469C20.4585 24.6469 20.4851 24.6469 20.5117 24.6469C20.5384 24.6069 20.5651 24.5673 20.5917 24.5268C20.6183 24.5268 20.6449 24.5268 20.6715 24.5268C20.7114 24.4735 20.7514 24.4203 20.7913 24.3668C20.818 24.3668 20.8446 24.3668 20.8712 24.3668C20.9377 24.2869 21.0043 24.2067 21.0709 24.1266C21.0975 24.1266 21.1241 24.1266 21.1507 24.1266C21.2838 23.9801 21.417 23.8334 21.5501 23.6864C21.7364 23.5134 21.9228 23.34 22.1092 23.1667C22.1092 23.1401 22.1092 23.1134 22.1092 23.0865C22.189 23.02 22.2689 22.9531 22.3488 22.8869C22.3488 22.8602 22.3488 22.8333 22.3488 22.8067C22.402 22.7668 22.4552 22.7268 22.5086 22.6866C22.5086 22.66 22.5086 22.6334 22.5086 22.6067C22.5484 22.5798 22.5884 22.5532 22.6283 22.5269C22.6283 22.5002 22.6283 22.4736 22.6283 22.4467C22.6683 22.4201 22.7081 22.3935 22.7481 22.3668C22.7615 22.3266 22.7747 22.2867 22.7881 22.2465C22.8147 22.2334 22.8413 22.2198 22.8679 22.2068C22.8679 22.1799 22.8679 22.1533 22.8679 22.1266C22.8945 22.1133 22.9212 22.1 22.9478 22.0867C22.9611 22.0465 22.9744 22.0066 22.9878 21.9666C23.001 21.9666 23.0144 21.9666 23.0276 21.9666C23.0276 21.9397 23.0276 21.9131 23.0276 21.8862C23.0542 21.8731 23.0809 21.8596 23.1076 21.8465C23.1208 21.7933 23.1342 21.7397 23.1475 21.6865C23.1741 21.6735 23.2007 21.6599 23.2273 21.6466C23.2407 21.5933 23.2539 21.5401 23.2673 21.4865C23.2939 21.4729 23.3205 21.4599 23.3471 21.4463C23.3737 21.3662 23.4004 21.2866 23.427 21.2064C23.4536 21.1931 23.4803 21.1798 23.5069 21.1665C23.5069 21.1399 23.5069 21.1129 23.5069 21.0863C23.5202 21.0863 23.5335 21.0863 23.5468 21.0863C23.5468 21.0597 23.5468 21.0331 23.5468 21.0065C23.5602 21.0065 23.5734 21.0065 23.5868 21.0065C23.5868 20.9795 23.5868 20.9529 23.5868 20.9266C23.6 20.9266 23.6134 20.9266 23.6266 20.9266C23.6266 20.9 23.6266 20.8733 23.6266 20.8464C23.64 20.8464 23.6534 20.8464 23.6666 20.8464C23.6666 20.8198 23.6666 20.7932 23.6666 20.7666C23.6799 20.7666 23.6932 20.7666 23.7065 20.7666C23.7065 20.7399 23.7065 20.713 23.7065 20.6864C23.7199 20.6864 23.7332 20.6864 23.7465 20.6864C23.7731 20.6066 23.7997 20.5264 23.8263 20.4462C23.8397 20.4462 23.8529 20.4462 23.8663 20.4462C23.8663 20.4066 23.8663 20.3663 23.8663 20.3264C23.8796 20.3264 23.8929 20.3264 23.9062 20.3264C23.9195 20.2732 23.9329 20.2199 23.9461 20.1664C23.9595 20.1664 23.9728 20.1664 23.9861 20.1664C24.1458 19.6866 24.3055 19.2062 24.4653 18.7262C24.4786 18.6061 24.4919 18.486 24.5053 18.3661C24.5185 18.3661 24.5319 18.3661 24.5452 18.3661C24.5452 18.3129 24.5452 18.2596 24.5452 18.2061C24.5585 18.2061 24.5718 18.2061 24.5851 18.2061C24.5851 18.1263 24.5851 18.0461 24.5851 17.966C24.5984 17.966 24.6118 17.966 24.625 17.966C24.625 17.8994 24.625 17.8325 24.625 17.766C24.6384 17.766 24.6516 17.766 24.665 17.766C24.6916 17.5261 24.7182 17.2862 24.7448 17.046C24.7448 16.9126 24.7448 16.7792 24.7448 16.6458C24.7582 16.6458 24.7715 16.6458 24.7848 16.6458C24.8426 16.4383 24.7884 15.5213 24.7448 15.3659C24.7316 15.0857 24.7182 14.8056 24.7049 14.5258C24.6916 14.5258 24.6782 14.5258 24.665 14.5258C24.665 14.4323 24.665 14.3391 24.665 14.2454C24.6516 14.2454 24.6384 14.2454 24.625 14.2454C24.625 14.1791 24.625 14.1123 24.625 14.0457C24.6118 14.0457 24.5984 14.0457 24.5851 14.0457C24.5851 13.9655 24.5851 13.8854 24.5851 13.8055C24.5718 13.8055 24.5585 13.8055 24.5452 13.8055C24.5319 13.6857 24.5185 13.5656 24.5053 13.4455C24.4919 13.4455 24.4786 13.4455 24.4653 13.4455C24.4653 13.3926 24.4653 13.339 24.4653 13.2858C24.452 13.2858 24.4387 13.2858 24.4253 13.2858C24.4121 13.192 24.3987 13.0988 24.3855 13.0054C24.3721 13.0054 24.3589 13.0054 24.3455 13.0054C24.3455 12.9655 24.3455 12.9255 24.3455 12.8856C24.3322 12.8856 24.3189 12.8856 24.3055 12.8856C24.3055 12.832 24.3055 12.7788 24.3055 12.7255C24.2923 12.7255 24.2789 12.7255 24.2656 12.7255C24.2656 12.6853 24.2656 12.6454 24.2656 12.6055C24.2523 12.6055 24.239 12.6055 24.2257 12.6055C24.2257 12.5652 24.2257 12.5253 24.2257 12.4856C24.2124 12.4856 24.1991 12.4856 24.1858 12.4856C24.1858 12.4451 24.1858 12.4055 24.1858 12.3653C24.1724 12.3653 24.1591 12.3653 24.1458 12.3653C24.1458 12.3386 24.1458 12.3117 24.1458 12.2851C24.1326 12.2851 24.1192 12.2851 24.1058 12.2851C24.0926 12.2052 24.0793 12.1254 24.066 12.0455C24.0526 12.0455 24.0394 12.0455 24.026 12.0455C23.9861 11.9251 23.9461 11.8056 23.9062 11.6855C24.7361 11.6893 25.8232 11.7793 26.4621 11.5654C26.6351 11.5385 26.8082 11.5119 26.9812 11.4853C26.9812 11.4722 26.9812 11.4587 26.9812 11.4456C27.0211 11.432 27.0611 11.419 27.101 11.4051C27.101 11.3921 27.101 11.3785 27.101 11.3652C27.1788 11.3461 27.1542 11.3886 27.1809 11.4051C27.3181 11.5295 27.3055 11.8131 27.3806 12.0053C27.5585 12.4608 27.633 13.032 27.7799 13.5257C27.7932 13.699 27.8065 13.8724 27.8198 14.0457C27.8331 14.0457 27.8465 14.0457 27.8598 14.0457C27.8598 14.1386 27.8598 14.2324 27.8598 14.3255C27.8731 14.3255 27.8864 14.3255 27.8997 14.3255C27.8997 14.4589 27.8997 14.5923 27.8997 14.7257C27.913 14.7257 27.9264 14.7257 27.9396 14.7257C27.9396 14.8991 27.9396 15.0722 27.9396 15.2461C28.0244 15.5543 28.0265 16.458 27.9396 16.7659C27.9396 16.9395 27.9396 17.1126 27.9396 17.2862C27.9264 17.2862 27.913 17.2862 27.8997 17.2862C27.8997 17.419 27.8997 17.5527 27.8997 17.6858C27.8864 17.6858 27.8731 17.6858 27.8598 17.6858C27.8598 17.7793 27.8598 17.8728 27.8598 17.966C27.8465 17.966 27.8331 17.966 27.8198 17.966C27.8198 18.0594 27.8198 18.1529 27.8198 18.2461C27.7643 18.4345 27.7168 18.7039 27.6601 18.8862C27.6601 18.953 27.6601 19.0193 27.6601 19.0864C27.6467 19.0864 27.6335 19.0864 27.6201 19.0864C27.6201 19.1397 27.6201 19.1932 27.6201 19.2464C27.6069 19.2464 27.5935 19.2464 27.5802 19.2464C27.5802 19.2997 27.5802 19.3526 27.5802 19.4059C27.5669 19.4059 27.5536 19.4059 27.5403 19.4059C27.5403 19.4594 27.5403 19.5127 27.5403 19.5662C27.527 19.5662 27.5137 19.5662 27.5004 19.5662C27.5004 19.6195 27.5004 19.6727 27.5004 19.7262C27.487 19.7262 27.4738 19.7262 27.4604 19.7262C27.4604 19.7795 27.4604 19.833 27.4604 19.8863C27.4471 19.8863 27.4338 19.8863 27.4205 19.8863C27.4205 19.9259 27.4205 19.9664 27.4205 20.0064C27.4072 20.0064 27.3938 20.0064 27.3806 20.0064C27.3806 20.0463 27.3806 20.0865 27.3806 20.1265C27.3672 20.1265 27.354 20.1265 27.3406 20.1265C27.3406 20.1664 27.3406 20.2063 27.3406 20.2465C27.3273 20.2465 27.314 20.2465 27.3007 20.2465C27.2874 20.3397 27.2741 20.4332 27.2607 20.5264C27.2474 20.5264 27.2341 20.5264 27.2208 20.5264C27.2208 20.553 27.2208 20.5796 27.2208 20.6066C27.2075 20.6066 27.1942 20.6066 27.1809 20.6066C27.1543 20.7263 27.1277 20.8464 27.101 20.9665C27.0877 20.9665 27.0744 20.9665 27.0611 20.9665C27.0611 20.9932 27.0611 21.0201 27.0611 21.0467C27.0478 21.0467 27.0345 21.0467 27.0212 21.0467C27.0212 21.0863 27.0212 21.1266 27.0212 21.1665C27.0078 21.1665 26.9945 21.1665 26.9812 21.1665C26.9679 21.233 26.9546 21.2999 26.9412 21.3661C26.928 21.3661 26.9146 21.3661 26.9014 21.3661C26.9014 21.3931 26.9014 21.4197 26.9014 21.4463C26.888 21.4463 26.8748 21.4463 26.8614 21.4463C26.8614 21.4865 26.8614 21.5265 26.8614 21.5667C26.8481 21.5667 26.8348 21.5667 26.8214 21.5667C26.7948 21.6466 26.7682 21.7267 26.7416 21.8063C26.7283 21.8063 26.715 21.8063 26.7017 21.8063C26.7017 21.8329 26.7017 21.8596 26.7017 21.8862C26.6883 21.8862 26.675 21.8862 26.6617 21.8862C26.6617 21.9267 26.6617 21.9666 26.6617 22.0066C26.6485 22.0066 26.6351 22.0066 26.6218 22.0066C26.5951 22.0867 26.5685 22.1663 26.5419 22.2465C26.5286 22.2465 26.5153 22.2465 26.502 22.2465C26.502 22.2731 26.502 22.2997 26.502 22.3266C26.4887 22.3266 26.4754 22.3266 26.4621 22.3266C26.4354 22.4065 26.4088 22.4866 26.3822 22.5665C26.3556 22.5798 26.329 22.5934 26.3023 22.6067C26.3023 22.6334 26.3023 22.66 26.3023 22.6866C26.289 22.6866 26.2757 22.6866 26.2624 22.6866C26.2624 22.7132 26.2624 22.7401 26.2624 22.7668C26.249 22.7668 26.2358 22.7668 26.2224 22.7668C26.2224 22.7934 26.2224 22.82 26.2224 22.8466C26.2091 22.8466 26.1958 22.8466 26.1825 22.8466C26.1825 22.8736 26.1825 22.9002 26.1825 22.9265C26.1559 22.9398 26.1293 22.9531 26.1027 22.9664C26.0761 23.0466 26.0494 23.1268 26.0228 23.2066C25.9961 23.2199 25.9695 23.2333 25.9429 23.2468C25.9429 23.2735 25.9429 23.3001 25.9429 23.3264C25.9163 23.34 25.8896 23.3531 25.863 23.3666C25.8497 23.4202 25.8364 23.4734 25.8231 23.5267C25.7964 23.54 25.7698 23.5533 25.7432 23.5666C25.7432 23.5932 25.7432 23.6199 25.7432 23.6468C25.7166 23.6601 25.69 23.6734 25.6634 23.6864C25.6634 23.7131 25.6634 23.7397 25.6634 23.7666C25.6367 23.7802 25.6101 23.7932 25.5835 23.8068C25.5835 23.8334 25.5835 23.86 25.5835 23.8867C25.5702 23.8867 25.5569 23.8867 25.5435 23.8867C25.5303 23.9266 25.5169 23.9668 25.5037 24.0068C25.477 24.0204 25.4504 24.0337 25.4237 24.047C25.4237 24.0736 25.4237 24.1002 25.4237 24.1266C25.3838 24.1538 25.3439 24.1801 25.3039 24.2067C25.3039 24.2333 25.3039 24.26 25.3039 24.2869C25.264 24.3135 25.224 24.3401 25.1842 24.3668C25.1842 24.3934 25.1842 24.4203 25.1842 24.4469C25.1442 24.4735 25.1043 24.5002 25.0643 24.5268C25.0643 24.5537 25.0643 24.5803 25.0643 24.6069C25.0111 24.6469 24.9579 24.6871 24.9046 24.7267C24.9046 24.7534 24.9046 24.78 24.9046 24.8069C24.8513 24.8471 24.7981 24.8868 24.7448 24.9267C24.4274 25.3689 24.0814 25.6716 23.7065 26.0472C23.5734 26.1936 23.4403 26.3406 23.3072 26.487C23.2805 26.487 23.2539 26.487 23.2273 26.487C23.1607 26.5672 23.0942 26.6471 23.0276 26.7272C23.001 26.7272 22.9744 26.7272 22.9478 26.7272C22.8946 26.7938 22.8413 26.8606 22.7881 26.9272C22.7614 26.9272 22.7347 26.9272 22.7081 26.9272C22.6683 26.9804 22.6283 27.0337 22.5884 27.0872C22.5618 27.0872 22.5352 27.0872 22.5086 27.0872C22.4819 27.1269 22.4552 27.1671 22.4286 27.207C22.402 27.207 22.3754 27.207 22.3488 27.207C22.3221 27.2472 22.2955 27.2869 22.2689 27.3274C22.2423 27.3274 22.2157 27.3274 22.1891 27.3274C22.1624 27.3671 22.1357 27.407 22.1092 27.4472C22.0825 27.4472 22.0559 27.4472 22.0293 27.4472C22.016 27.4738 22.0026 27.5005 21.9894 27.5271C21.9494 27.5404 21.9094 27.5537 21.8696 27.567C21.8696 27.5806 21.8696 27.5939 21.8696 27.6072C21.8429 27.6072 21.8163 27.6072 21.7897 27.6072C21.7764 27.6339 21.7631 27.6605 21.7497 27.6868C21.7231 27.6868 21.6965 27.6868 21.6699 27.6868C21.6565 27.7137 21.6433 27.7403 21.6299 27.767C21.6033 27.767 21.5767 27.767 21.5501 27.767C21.5368 27.7936 21.5234 27.8202 21.5102 27.8471C21.4569 27.8607 21.4036 27.8738 21.3504 27.8873C21.3371 27.914 21.3238 27.9406 21.3104 27.9675C21.2705 27.9808 21.2306 27.9941 21.1907 28.0075C21.1907 28.0207 21.1907 28.0341 21.1907 28.0474C21.164 28.0474 21.1375 28.0474 21.1107 28.0474C21.1107 28.0607 21.1107 28.074 21.1107 28.0873C21.0841 28.0873 21.0575 28.0873 21.0309 28.0873C21.0309 28.1009 21.0309 28.1142 21.0309 28.1276C21.0043 28.1276 20.9777 28.1276 20.951 28.1276C20.9377 28.1539 20.9244 28.1805 20.9111 28.2071C20.8845 28.2071 20.8578 28.2071 20.8312 28.2071C20.8312 28.2207 20.8312 28.234 20.8312 28.2476C20.8046 28.2476 20.778 28.2476 20.7514 28.2476C20.7514 28.2607 20.7514 28.2742 20.7514 28.2873C20.7248 28.2873 20.6981 28.2873 20.6715 28.2873C20.6715 28.3009 20.6715 28.3139 20.6715 28.3272C20.6449 28.3272 20.6183 28.3272 20.5917 28.3272C20.5783 28.3541 20.5651 28.3808 20.5517 28.4074C20.4719 28.434 20.392 28.4606 20.3121 28.4875C20.3121 28.5008 20.3121 28.5139 20.3121 28.5275C20.2854 28.5275 20.2588 28.5275 20.2322 28.5275C20.2322 28.5405 20.2322 28.5541 20.2322 28.5671C20.1524 28.5937 20.0725 28.6206 19.9927 28.6473C19.9927 28.6609 19.9927 28.6739 19.9927 28.6875C19.9527 28.6875 19.9127 28.6875 19.8728 28.6875C19.8728 28.7005 19.8728 28.7141 19.8728 28.7271C19.8462 28.7271 19.8196 28.7271 19.7929 28.7271C19.7929 28.7408 19.7929 28.754 19.7929 28.7677C19.713 28.7943 19.6332 28.8209 19.5533 28.8475C19.5533 28.8605 19.5533 28.8741 19.5533 28.8874C19.5134 28.8874 19.4735 28.8874 19.4335 28.8874C19.4335 28.901 19.4335 28.9141 19.4335 28.9271C19.4069 28.9271 19.3803 28.9271 19.3537 28.9271C19.3537 28.9407 19.3537 28.9537 19.3537 28.9673C19.3137 28.9673 19.2738 28.9673 19.2338 28.9673C19.2338 28.9803 19.2338 28.994 19.2338 29.0073C19.2072 29.0073 19.1806 29.0073 19.154 29.0073C19.154 29.0209 19.154 29.0339 19.154 29.0475C19.1141 29.0475 19.0741 29.0475 19.0342 29.0475C19.0342 29.0605 19.0342 29.0741 19.0342 29.0871C19.0075 29.0871 18.9809 29.0871 18.9543 29.0871C18.9543 29.1007 18.9543 29.1137 18.9543 29.1274C18.8345 29.1543 18.7147 29.1809 18.5949 29.2075C18.5949 29.2205 18.5949 29.2341 18.5949 29.2472C18.5683 29.2472 18.5416 29.2472 18.515 29.2472C18.515 29.2607 18.515 29.2741 18.515 29.2877C18.4219 29.3007 18.3287 29.3143 18.2355 29.3273C18.2355 29.3406 18.2355 29.3539 18.2355 29.3672C18.1955 29.3672 18.1556 29.3672 18.1156 29.3672C18.1156 29.3806 18.1156 29.3939 18.1156 29.4075C18.0758 29.4075 18.0358 29.4075 17.9959 29.4075C17.9959 29.4208 17.9959 29.4341 17.9959 29.4474C17.9559 29.4474 17.916 29.4474 17.8761 29.4474C17.8761 29.4607 17.8761 29.474 17.8761 29.4873C17.8229 29.4873 17.7695 29.4873 17.7163 29.4873C17.7163 29.5006 17.7163 29.514 17.7163 29.5273C17.6631 29.5273 17.6098 29.5273 17.5566 29.5273C17.5566 29.5409 17.5566 29.5542 17.5566 29.5675C17.5034 29.5675 17.4501 29.5675 17.3969 29.5675C17.3969 29.5808 17.3969 29.5941 17.3969 29.6074C17.3436 29.6074 17.2903 29.6074 17.2371 29.6074C17.2371 29.6207 17.2371 29.6341 17.2371 29.6474C17.1839 29.6474 17.1306 29.6474 17.0774 29.6474C17.0774 29.6607 17.0774 29.6743 17.0774 29.6876C17.0108 29.6876 16.9442 29.6876 16.8777 29.6876C16.8777 29.7006 16.8777 29.7142 16.8777 29.7272C16.8111 29.7272 16.7445 29.7272 16.6781 29.7272C16.6781 29.7408 16.6781 29.7538 16.6781 29.7675C16.6115 29.7675 16.5449 29.7675 16.4784 29.7675C16.4784 29.7805 16.4784 29.7941 16.4784 29.8074C16.3985 29.8074 16.3186 29.8074 16.2387 29.8074C16.2387 29.821 16.2387 29.834 16.2387 29.8476C16.0524 29.8606 15.866 29.8742 15.6797 29.8873C15.6797 29.9009 15.6797 29.9142 15.6797 29.9275C15.1472 29.9544 14.6147 29.981 14.0823 30.0077C13.6164 29.9943 13.1504 29.981 12.6846 29.9677C12.6846 29.9544 12.6846 29.9408 12.6846 29.9275C12.5648 29.9275 12.4449 29.9275 12.3251 29.9275C12.3251 29.9142 12.3251 29.9009 12.3251 29.8873C12.2187 29.8873 12.1122 29.8873 12.0056 29.8873C11.38 29.7539 10.7543 29.6207 10.1287 29.4873C9.17769 29.1453 8.20506 28.8264 7.41312 28.3272C7.38651 28.3272 7.3599 28.3272 7.33329 28.3272C7.33329 28.3139 7.33329 28.3009 7.33329 28.2873C7.30668 28.2873 7.27998 28.2873 7.25337 28.2873C7.25337 28.2742 7.25337 28.2607 7.25337 28.2476C7.22676 28.2476 7.20015 28.2476 7.17357 28.2476C7.17357 28.234 7.17357 28.2207 7.17357 28.2071C7.14696 28.2071 7.12026 28.2071 7.09365 28.2071C7.08039 28.1805 7.06704 28.1539 7.05378 28.1276C6.97386 28.1009 6.89394 28.074 6.81411 28.0474C6.81411 28.0341 6.81411 28.0207 6.81411 28.0075C6.77415 27.9941 6.73428 27.9808 6.69435 27.9675C6.68097 27.9406 6.66774 27.914 6.65439 27.8873C6.60117 27.8738 6.54786 27.8607 6.49464 27.8471C6.49464 27.8341 6.49464 27.8202 6.49464 27.8072C6.45468 27.7936 6.41481 27.7806 6.37485 27.767C6.3615 27.7403 6.34824 27.7137 6.33489 27.6868C6.30828 27.6868 6.28167 27.6868 6.25506 27.6868C6.24171 27.6605 6.22836 27.6339 6.2151 27.6072C6.18852 27.6072 6.16191 27.6072 6.13521 27.6072C6.13521 27.5939 6.13521 27.5806 6.13521 27.567C6.09534 27.5537 6.05538 27.5404 6.01542 27.5271C6.00216 27.5005 5.98881 27.4738 5.97546 27.4472C5.94885 27.4472 5.92224 27.4472 5.89563 27.4472C5.86902 27.407 5.84241 27.3671 5.81571 27.3274C5.7891 27.3274 5.76249 27.3274 5.73588 27.3274C5.7093 27.2869 5.68269 27.2472 5.65599 27.207C5.62938 27.207 5.60277 27.207 5.57616 27.207C5.54955 27.1671 5.52294 27.1269 5.49624 27.0872C5.46963 27.0872 5.44302 27.0872 5.41641 27.0872C5.37645 27.0337 5.33649 26.9804 5.29662 26.9272C5.27001 26.9272 5.24331 26.9272 5.2167 26.9272C5.19012 26.8873 5.16351 26.847 5.1369 26.8074C5.12355 26.8074 5.11029 26.8074 5.09694 26.8074C5.08359 26.7805 5.07033 26.7538 5.05698 26.7272C5.03037 26.7272 5.00376 26.7272 4.97715 26.7272C4.91058 26.6471 4.84401 26.5672 4.77744 26.487C4.75083 26.487 4.72425 26.487 4.69764 26.487C4.53789 26.314 4.37805 26.1407 4.21842 25.967C3.9921 25.7535 3.76578 25.5402 3.53949 25.3269C3.53949 25.3003 3.53949 25.2737 3.53949 25.247C3.45957 25.1802 3.37974 25.1136 3.29982 25.0468C3.29982 25.0202 3.29982 24.9935 3.29982 24.9669C3.23337 24.9134 3.16668 24.8601 3.10023 24.8069C3.10023 24.78 3.10023 24.7534 3.10023 24.7267C3.04692 24.6871 2.9937 24.6469 2.94048 24.6069C2.94048 24.5803 2.94048 24.5537 2.94048 24.5268C2.90052 24.5002 2.86056 24.4735 2.8206 24.4469C2.8206 24.4203 2.8206 24.3934 2.8206 24.3668C2.78073 24.3401 2.74077 24.3135 2.70081 24.2869C2.70081 24.26 2.70081 24.2333 2.70081 24.2067C2.66088 24.1801 2.62101 24.1538 2.58105 24.1266C2.58105 24.1002 2.58105 24.0736 2.58105 24.047C2.55444 24.0337 2.52783 24.0204 2.50113 24.0068C2.48787 23.9668 2.47452 23.9266 2.46126 23.8867C2.44791 23.8867 2.43465 23.8867 2.4213 23.8867C2.4213 23.86 2.4213 23.8334 2.4213 23.8068C2.39469 23.7932 2.36808 23.7802 2.34138 23.7666C2.34138 23.7397 2.34138 23.7131 2.34138 23.6864C2.31477 23.6734 2.28816 23.6601 2.26155 23.6468C2.26155 23.6199 2.26155 23.5932 2.26155 23.5666C2.23494 23.5533 2.20836 23.54 2.18163 23.5267C2.1684 23.4734 2.15505 23.4202 2.14179 23.3666C2.11518 23.3531 2.08848 23.34 2.06187 23.3264C2.04861 23.2868 2.03526 23.2468 2.02191 23.2066C2.00865 23.2066 1.9953 23.2066 1.98204 23.2066C1.95543 23.1268 1.92873 23.0466 1.90212 22.9664C1.87551 22.9531 1.8489 22.9398 1.82229 22.9265C1.82229 22.9002 1.82229 22.8736 1.82229 22.8466C1.80894 22.8466 1.79568 22.8466 1.78233 22.8466C1.78233 22.82 1.78233 22.7934 1.78233 22.7668C1.76898 22.7668 1.75572 22.7668 1.74237 22.7668C1.74237 22.7401 1.74237 22.7132 1.74237 22.6866C1.72914 22.6866 1.71576 22.6866 1.70241 22.6866C1.70241 22.66 1.70241 22.6334 1.70241 22.6067C1.20585 21.8138 0.88254 20.8395 0.54438 19.8863C0.53103 19.7795 0.51777 19.6727 0.50442 19.5662C0.49116 19.5662 0.47781 19.5662 0.46446 19.5662C0.46446 19.5127 0.46446 19.4594 0.46446 19.4059C0.4512 19.4059 0.43785 19.4059 0.42459 19.4059C0.42459 19.3526 0.42459 19.2997 0.42459 19.2464C0.41124 19.2464 0.39789 19.2464 0.38463 19.2464C0.38463 19.1932 0.38463 19.1397 0.38463 19.0864C0.37128 19.0864 0.35802 19.0864 0.34467 19.0864C0.34467 19.0193 0.34467 18.953 0.34467 18.8862C0.33141 18.8862 0.31806 18.8862 0.30471 18.8862C0.29145 18.7528 0.2781 18.6193 0.26484 18.486C0.25149 18.486 0.23814 18.486 0.22491 18.486C0.22491 18.4061 0.22491 18.3259 0.22491 18.2461C0.21153 18.2461 0.1983 18.2461 0.18495 18.2461C0.18495 18.1529 0.18495 18.0594 0.18495 17.966C0.17169 17.966 0.15834 17.966 0.14499 17.966C0.13173 17.7394 0.11838 17.5128 0.10512 17.2862C0.09177 17.2862 0.07842 17.2862 0.06516 17.2862C0.06516 17.1126 0.06516 16.9395 0.06516 16.7659C-0.01971 16.4574 -0.02172 15.5537 0.06516 15.2461C0.06516 15.0722 0.06516 14.8991 0.06516 14.7257C0.07842 14.7257 0.09177 14.7257 0.10512 14.7257C0.11838 14.4992 0.13173 14.272 0.14499 14.0457C0.15834 14.0457 0.17169 14.0457 0.18495 14.0457C0.18495 13.9525 0.18495 13.8588 0.18495 13.7656C0.24045 13.5775 0.28803 13.3078 0.34467 13.1257C0.34467 13.0586 0.34467 12.9924 0.34467 12.9255C0.35802 12.9255 0.37128 12.9255 0.38463 12.9255C0.38463 12.8723 0.38463 12.8187 0.38463 12.7655C0.39789 12.7655 0.41124 12.7655 0.42459 12.7655C0.42459 12.7122 0.42459 12.6587 0.42459 12.6055C0.43785 12.6055 0.4512 12.6055 0.46446 12.6055C0.46446 12.5519 0.46446 12.4987 0.46446 12.4451C0.47781 12.4451 0.49116 12.4451 0.50442 12.4451C0.50442 12.3919 0.50442 12.3386 0.50442 12.2851C0.51777 12.2851 0.53103 12.2851 0.54438 12.2851C0.54438 12.2319 0.54438 12.1783 0.54438 12.1254C0.55764 12.1254 0.57099 12.1254 0.58434 12.1254C0.58434 12.0854 0.58434 12.0452 0.58434 12.0053C0.5976 12.0053 0.61095 12.0053 0.62421 12.0053C0.62421 11.9656 0.62421 11.9251 0.62421 11.8855C0.63756 11.8855 0.65091 11.8855 0.66417 11.8855C0.66417 11.8453 0.66417 11.8056 0.66417 11.7651C0.67752 11.7651 0.69078 11.7651 0.70413 11.7651C0.70413 11.7121 0.70413 11.6586 0.70413 11.6053C0.71736 11.6053 0.73071 11.6053 0.74409 11.6053C0.74409 11.5654 0.74409 11.5252 0.74409 11.4853C0.75732 11.4853 0.77067 11.4853 0.78393 11.4853C0.78393 11.4587 0.78393 11.432 0.78393 11.4051C0.79728 11.4051 0.81054 11.4051 0.82389 11.4051C0.8505 11.2853 0.87711 11.1655 0.90381 11.0451C0.91707 11.0451 0.93042 11.0451 0.94368 11.0451C0.94368 11.0185 0.94368 10.9916 0.94368 10.965C0.95703 10.965 0.97029 10.965 0.98364 10.965C0.98364 10.9253 0.98364 10.8854 0.98364 10.8451C0.99699 10.8451 1.01025 10.8451 1.0236 10.8451C1.0236 10.8185 1.0236 10.7919 1.0236 10.7653C1.03686 10.7653 1.05021 10.7653 1.06356 10.7653C1.06356 10.7251 1.06356 10.6851 1.06356 10.6452C1.07682 10.6452 1.09017 10.6452 1.10343 10.6452C1.10343 10.6186 1.10343 10.5916 1.10343 10.565C1.11678 10.565 1.13004 10.565 1.14339 10.565C1.14339 10.5254 1.14339 10.4852 1.14339 10.4452C1.15674 10.4452 1.17 10.4452 1.18335 10.4452C1.20996 10.3654 1.23654 10.2852 1.26315 10.205C1.2765 10.205 1.28976 10.205 1.30311 10.205C1.30311 10.1784 1.30311 10.1518 1.30311 10.1252C1.31646 10.1252 1.32972 10.1252 1.34307 10.1252C1.34307 10.0853 1.34307 10.045 1.34307 10.0054C1.35633 10.0054 1.36968 10.0054 1.38303 10.0054C1.40964 9.9252 1.43625 9.84534 1.46286 9.76518C1.47621 9.76518 1.48947 9.76518 1.50282 9.76518C1.50282 9.73857 1.50282 9.71193 1.50282 9.68502C1.51608 9.68502 1.52943 9.68502 1.54278 9.68502C1.56939 9.60516 1.596 9.525 1.62261 9.44514C1.64922 9.43182 1.67583 9.41823 1.70241 9.40521C1.70241 9.37827 1.70241 9.35166 1.70241 9.32505C1.71576 9.32505 1.72914 9.32505 1.74237 9.32505C1.74237 9.29841 1.74237 9.2715 1.74237 9.24489C1.75572 9.24489 1.76898 9.24489 1.78233 9.24489C1.78233 9.21825 1.78233 9.19164 1.78233 9.165C1.79568 9.165 1.80894 9.165 1.82229 9.165C1.82229 9.13809 1.82229 9.11148 1.82229 9.08484C1.8489 9.07182 1.87551 9.05823 1.90212 9.04521C1.92873 8.96505 1.95543 8.88489 1.98204 8.80503C1.9953 8.80503 2.00865 8.80503 2.02191 8.80503C2.03526 8.7651 2.04861 8.72487 2.06187 8.68494C2.08848 8.67162 2.11518 8.6583 2.14179 8.64498C2.15505 8.59146 2.1684 8.53851 2.18163 8.48496C2.19501 8.48496 2.20836 8.48496 2.22159 8.48496C2.23494 8.44503 2.2482 8.4051 2.26155 8.36487C2.28816 8.35155 2.31477 8.33826 2.34138 8.32494C2.34138 8.29833 2.34138 8.27169 2.34138 8.24478C2.35473 8.24478 2.36808 8.24478 2.38134 8.24478C2.39469 8.20485 2.40795 8.16492 2.4213 8.12526C2.44791 8.11137 2.47452 8.09835 2.50113 8.08476C2.50113 8.05812 2.50113 8.03151 2.50113 8.00487C2.54109 7.97796 2.58105 7.95135 2.62101 7.92474C2.62101 7.8981 2.62101 7.87149 2.62101 7.84485C2.64762 7.83156 2.67423 7.81851 2.70081 7.80492C2.70081 7.77831 2.70081 7.75167 2.70081 7.72476C2.74077 7.69815 2.78073 7.67151 2.8206 7.6449C2.8206 7.61826 2.8206 7.59135 2.8206 7.56474C2.86056 7.5381 2.90052 7.51149 2.94048 7.48488C2.94048 7.45797 2.94048 7.43133 2.94048 7.40472C2.9937 7.36476 3.04692 7.32483 3.10023 7.28463C3.10023 7.25799 3.10023 7.23138 3.10023 7.20474C3.1401 7.17783 3.18006 7.15122 3.22002 7.12458C3.22002 7.11156 3.22002 7.09797 3.22002 7.08495C3.2466 7.07133 3.27321 7.05804 3.29982 7.04442C3.29982 7.01781 3.29982 6.99117 3.29982 6.96486C3.37974 6.89799 3.45957 6.83145 3.53949 6.76461C3.53949 6.73797 3.53949 6.71136 3.53949 6.68472C3.73908 6.49809 3.93888 6.31143 4.1385 6.1245C4.32483 5.92482 4.51128 5.72487 4.69764 5.52459C4.72425 5.52459 4.75083 5.52459 4.77744 5.52459C4.84401 5.44446 4.91058 5.36487 4.97715 5.28471C5.00376 5.28471 5.03037 5.28471 5.05698 5.28471C5.11029 5.21787 5.16351 5.1513 5.2167 5.08446C5.24331 5.08446 5.27001 5.08446 5.29662 5.08446C5.33649 5.03091 5.37645 4.97796 5.41641 4.92444C5.44302 4.92444 5.46963 4.92444 5.49624 4.92444C5.52294 4.88448 5.54955 4.84455 5.57616 4.80435C5.60277 4.80435 5.62938 4.80435 5.65599 4.80435C5.68269 4.76469 5.7093 4.72446 5.73588 4.68453C5.76249 4.68453 5.7891 4.68453 5.81571 4.68453C5.82906 4.65792 5.84241 4.63128 5.85567 4.60467C5.88228 4.60467 5.90898 4.60467 5.93559 4.60467C5.9622 4.56474 5.98881 4.52451 6.01542 4.48458C6.04203 4.48458 6.06873 4.48458 6.09534 4.48458C6.1086 4.45794 6.12195 4.43103 6.13521 4.40442C6.16191 4.40442 6.18852 4.40442 6.2151 4.40442C6.22836 4.37778 6.24171 4.35117 6.25506 4.32453C6.28167 4.32453 6.30828 4.32453 6.33489 4.32453C6.34824 4.29762 6.3615 4.27101 6.37485 4.24467C6.40146 4.24467 6.42807 4.24467 6.45468 4.24467C6.46803 4.21806 6.48138 4.19142 6.49464 4.16451C6.54786 4.15119 6.60117 4.1379 6.65439 4.12458C6.66774 4.09797 6.68097 4.07133 6.69435 4.04472C6.73428 4.0311 6.77415 4.01781 6.81411 4.00449C6.81411 3.99117 6.81411 3.97785 6.81411 3.96456C6.84072 3.96456 6.86733 3.96456 6.89403 3.96456C6.89403 3.95124 6.89403 3.93792 6.89403 3.92463C6.92064 3.92463 6.94725 3.92463 6.97386 3.92463C6.97386 3.91101 6.97386 3.89772 6.97386 3.8844C7.00047 3.8844 7.02708 3.8844 7.05378 3.8844C7.06704 3.85776 7.08039 3.83115 7.09365 3.80454C7.12026 3.80454 7.14696 3.80454 7.17357 3.80454C7.17357 3.79149 7.17357 3.7776 7.17357 3.76458C7.20015 3.76458 7.22676 3.76458 7.25337 3.76458C7.25337 3.75099 7.25337 3.73797 7.25337 3.72438C7.27998 3.72438 7.30668 3.72438 7.33329 3.72438C7.33329 3.71136 7.33329 3.69774 7.33329 3.68472C7.3599 3.68472 7.38651 3.68472 7.41312 3.68472C7.42647 3.65811 7.43973 3.6312 7.45308 3.60456C7.47969 3.60456 7.5063 3.60456 7.533 3.60456C7.533 3.59097 7.533 3.57795 7.533 3.56433C7.61283 3.53772 7.69275 3.51081 7.77255 3.48417C7.77255 3.47115 7.77255 3.45756 7.77255 3.44454C7.85238 3.41763 7.9323 3.39099 8.01213 3.36408C8.01213 3.35106 8.01213 3.33747 8.01213 3.32445C8.05209 3.32445 8.09205 3.32445 8.13201 3.32445C8.13201 3.31083 8.13201 3.29781 8.13201 3.28422C8.15862 3.28422 8.1852 3.28422 8.21181 3.28422C8.21181 3.2712 8.21181 3.25761 8.21181 3.24429C8.29173 3.21765 8.37156 3.19104 8.45148 3.16443C8.45148 3.15081 8.45148 3.13779 8.45148 3.1242C8.49135 3.1242 8.53131 3.1242 8.57127 3.1242C8.57127 3.11088 8.57127 3.09729 8.57127 3.08427C8.59788 3.08427 8.62449 3.08427 8.65107 3.08427C8.65107 3.07065 8.65107 3.05763 8.65107 3.04431C8.69103 3.04431 8.73099 3.04431 8.77095 3.04431C8.77095 3.03102 8.77095 3.018 8.77095 3.00438C8.79756 3.00438 8.82417 3.00438 8.85078 3.00438C8.85078 2.99109 8.85078 2.97747 8.85078 2.96445C8.89074 2.96445 8.9307 2.96445 8.97057 2.96445C8.97057 2.95086 8.97057 2.93784 8.97057 2.92422C8.99727 2.92422 9.02388 2.92422 9.05049 2.92422C9.05049 2.9112 9.05049 2.89761 9.05049 2.88459C9.17028 2.85768 9.29013 2.83104 9.40992 2.80443C9.40992 2.79084 9.40992 2.77779 9.40992 2.7642C9.43653 2.7642 9.46314 2.7642 9.48975 2.7642C9.48975 2.75118 9.48975 2.73759 9.48975 2.72427C9.58293 2.71068 9.67608 2.69766 9.76926 2.68404C9.76926 2.67102 9.76926 2.65743 9.76926 2.64441C9.80922 2.64441 9.84918 2.64441 9.88914 2.64441C9.88914 2.63079 9.88914 2.61777 9.88914 2.60445C9.92901 2.60445 9.96897 2.60445 10.0089 2.60445C10.0089 2.59086 10.0089 2.57727 10.0089 2.56425C10.0489 2.56425 10.0888 2.56425 10.1287 2.56425C10.1287 2.55093 10.1287 2.53761 10.1287 2.52432C10.2352 2.511 10.3417 2.49768 10.4482 2.48436C10.4482 2.47107 10.4482 2.45745 10.4482 2.44416C10.5014 2.44416 10.5547 2.44416 10.6079 2.44416C10.6079 2.43084 10.6079 2.41782 10.6079 2.4042C10.6611 2.4042 10.7144 2.4042 10.7677 2.4042C10.7677 2.39118 10.7677 2.37759 10.7677 2.36457C10.8209 2.36457 10.8742 2.36457 10.9274 2.36457C10.9274 2.35098 10.9274 2.33766 10.9274 2.32404C10.994 2.32404 11.0606 2.32404 11.1271 2.32404C11.1271 2.31102 11.1271 2.29743 11.1271 2.28441C11.2601 2.27082 11.3934 2.2578 11.5264 2.24418C11.5264 2.23116 11.5264 2.21784 11.5264 2.20425C11.6063 2.20425 11.6861 2.20425 11.7661 2.20425C11.7661 2.19093 11.7661 2.17764 11.7661 2.16432C11.8592 2.16432 11.9524 2.16432 12.0456 2.16432C12.0456 2.151 12.0456 2.13768 12.0456 2.12439C12.1388 2.12439 12.2319 2.12439 12.3251 2.12439C12.3251 2.11107 12.3251 2.09775 12.3251 2.08446C12.4449 2.08446 12.5648 2.08446 12.6846 2.08446C12.6846 2.07084 12.6846 2.05755 12.6846 2.04423C12.8709 2.04423 13.0573 2.04423 13.2436 2.04423C13.5515 1.95885 14.4538 1.95741 14.7612 2.04423C14.9475 2.04423 15.1339 2.04423 15.3202 2.04423C15.3202 2.05755 15.3202 2.07084 15.3202 2.08446C15.44 2.08446 15.5599 2.08446 15.6797 2.08446C15.6797 2.09775 15.6797 2.11107 15.6797 2.12439C15.7728 2.12439 15.866 2.12439 15.9592 2.12439C15.9592 2.13768 15.9592 2.151 15.9592 2.16432C16.0524 2.16432 16.1455 2.16432 16.2387 2.16432C16.2387 2.17764 16.2387 2.19093 16.2387 2.20425C16.3852 2.21784 16.5316 2.23116 16.6781 2.24418C16.6781 2.2578 16.6781 2.27082 16.6781 2.28441C16.8111 2.29743 16.9442 2.31102 17.0774 2.32404C17.0774 2.33766 17.0774 2.35098 17.0774 2.36457C17.1839 2.37759 17.2903 2.39118 17.3969 2.4042C17.3969 2.41782 17.3969 2.43084 17.3969 2.44416C17.4501 2.44416 17.5034 2.44416 17.5566 2.44416C17.5566 2.45745 17.5566 2.47107 17.5566 2.48436C17.6098 2.48436 17.6631 2.48436 17.7163 2.48436C17.7163 2.49768 17.7163 2.511 17.7163 2.52432C17.7695 2.52432 17.8229 2.52432 17.8761 2.52432C17.8761 2.53761 17.8761 2.55093 17.8761 2.56425C17.916 2.56425 17.9559 2.56425 17.9959 2.56425C17.9959 2.57727 17.9959 2.59086 17.9959 2.60445C18.0358 2.60445 18.0758 2.60445 18.1156 2.60445C18.1156 2.61777 18.1156 2.63079 18.1156 2.64441C18.1556 2.64441 18.1955 2.64441 18.2355 2.64441C18.2355 2.65743 18.2355 2.67102 18.2355 2.68404C18.2887 2.68404 18.3419 2.68404 18.3953 2.68404C18.3953 2.69766 18.3953 2.71068 18.3953 2.72427C18.4351 2.72427 18.4751 2.72427 18.515 2.72427C18.515 2.73759 18.515 2.75118 18.515 2.7642C18.5816 2.77779 18.6482 2.79084 18.7147 2.80443C18.7147 2.81745 18.7147 2.83104 18.7147 2.84406C18.6724 2.87244 18.5312 3.04317 18.515 3.08427C18.515 3.15081 18.515 3.21765 18.515 3.28422C18.5017 3.28422 18.4884 3.28422 18.4751 3.28422C18.4751 3.33747 18.4751 3.39099 18.4751 3.44454C18.4618 3.44454 18.4485 3.44454 18.4351 3.44454C18.4351 3.49779 18.4351 3.55131 18.4351 3.60456C18.4219 3.60456 18.4085 3.60456 18.3953 3.60456C18.3953 3.65811 18.3953 3.71136 18.3953 3.76458C18.3819 3.76458 18.3685 3.76458 18.3553 3.76458C18.3553 3.81813 18.3553 3.87108 18.3553 3.92463C18.3419 3.92463 18.3287 3.92463 18.3153 3.92463C18.3153 4.6443 18.3153 5.36487 18.3153 6.08484ZM21.7497 12.7255C21.7897 12.859 21.8296 12.9924 21.8696 13.1257C21.8828 13.1257 21.8962 13.1257 21.9095 13.1257C21.9095 13.1654 21.9095 13.2056 21.9095 13.2456C21.9228 13.2456 21.9361 13.2456 21.9494 13.2456C21.9494 13.2858 21.9494 13.3254 21.9494 13.3654C21.9628 13.3654 21.976 13.3654 21.9894 13.3654C21.9894 13.4056 21.9894 13.4455 21.9894 13.4854C22.0026 13.4854 22.016 13.4854 22.0293 13.4854C22.0426 13.5789 22.0559 13.6724 22.0692 13.7656C22.0826 13.7656 22.0959 13.7656 22.1092 13.7656C22.189 14.1791 22.2689 14.5923 22.3488 15.0059C22.3488 15.1523 22.3488 15.2993 22.3488 15.4457C22.3621 15.4457 22.3754 15.4457 22.3887 15.4457C22.3887 15.6457 22.3887 15.8456 22.3887 16.0459C22.3887 16.5723 22.3535 17.1149 22.2289 17.5258C22.2157 17.6592 22.2023 17.7926 22.1891 17.926C22.1757 17.926 22.1624 17.926 22.1491 17.926C22.1357 18.0328 22.1225 18.1396 22.1092 18.2461C22.0959 18.2461 22.0826 18.2461 22.0692 18.2461C22.0559 18.3395 22.0426 18.4327 22.0293 18.5265C22.016 18.5265 22.0026 18.5265 21.9894 18.5265C21.9894 18.5661 21.9894 18.6061 21.9894 18.6463C21.976 18.6463 21.9628 18.6463 21.9494 18.6463C21.9494 18.6862 21.9494 18.7262 21.9494 18.7661C21.9361 18.7661 21.9228 18.7661 21.9095 18.7661C21.9095 18.8063 21.9095 18.8462 21.9095 18.8862C21.8962 18.8862 21.8828 18.8862 21.8696 18.8862C21.8696 18.9131 21.8696 18.9397 21.8696 18.966C21.8562 18.966 21.8429 18.966 21.8296 18.966C21.8296 19.0063 21.8296 19.0462 21.8296 19.0864C21.8163 19.0864 21.803 19.0864 21.7897 19.0864C21.7897 19.1131 21.7897 19.1397 21.7897 19.1663C21.7764 19.1663 21.7631 19.1663 21.7497 19.1663C21.7497 19.2062 21.7497 19.2464 21.7497 19.2861C21.7364 19.2861 21.7231 19.2861 21.7098 19.2861C21.6965 19.3396 21.6831 19.3929 21.6699 19.4464C21.6565 19.4464 21.6433 19.4464 21.6299 19.4464C21.6299 19.473 21.6299 19.4997 21.6299 19.5263C21.6167 19.5263 21.6033 19.5263 21.59 19.5263C21.59 19.5662 21.59 19.6064 21.59 19.6461C21.5767 19.6461 21.5634 19.6461 21.5501 19.6461C21.5368 19.6996 21.5234 19.7529 21.5102 19.8061C21.4968 19.8061 21.4835 19.8061 21.4702 19.8061C21.4569 19.8596 21.4436 19.9129 21.4302 19.9664C21.4036 19.9797 21.377 19.9931 21.3504 20.0064C21.3238 20.0865 21.2972 20.1664 21.2705 20.2465C21.2439 20.2596 21.2173 20.2732 21.1907 20.2862C21.1773 20.3397 21.164 20.393 21.1507 20.4462C21.1375 20.4462 21.1241 20.4462 21.1107 20.4462C21.0975 20.4867 21.0842 20.5264 21.0709 20.5663C21.0443 20.5796 21.0176 20.5929 20.991 20.6066C20.991 20.6332 20.991 20.6598 20.991 20.6864C20.9777 20.6864 20.9644 20.6864 20.951 20.6864C20.9377 20.7263 20.9244 20.7666 20.9111 20.8065C20.8845 20.8198 20.8578 20.8331 20.8312 20.8464C20.8312 20.8733 20.8312 20.9 20.8312 20.9266C20.7914 20.9529 20.7514 20.9795 20.7114 21.0065C20.7114 21.0331 20.7114 21.0597 20.7114 21.0863C20.6715 21.1129 20.6315 21.1399 20.5917 21.1665C20.5917 21.1931 20.5917 21.2198 20.5917 21.2464C20.5251 21.2999 20.4585 21.3531 20.392 21.4067C20.392 21.4333 20.392 21.4599 20.392 21.4865C20.2588 21.6064 20.1257 21.7267 19.9927 21.8465C19.8196 22.0332 19.6465 22.2198 19.4735 22.4065C19.4469 22.4065 19.4202 22.4065 19.3936 22.4065C19.3403 22.4736 19.2871 22.5399 19.2338 22.6067C19.2072 22.6067 19.1806 22.6067 19.154 22.6067C19.1274 22.6467 19.1007 22.6866 19.0741 22.7268C19.0475 22.7268 19.0209 22.7268 18.9943 22.7268C18.9677 22.7668 18.941 22.8067 18.9143 22.8466C18.8877 22.8466 18.8611 22.8466 18.8345 22.8466C18.8212 22.8736 18.8079 22.9002 18.7945 22.9265C18.7546 22.9398 18.7147 22.9531 18.6748 22.9664C18.6748 22.98 18.6748 22.9933 18.6748 23.0067C18.6482 23.0067 18.6216 23.0067 18.5949 23.0067C18.5816 23.0333 18.5683 23.0599 18.555 23.0865C18.515 23.0999 18.4751 23.1134 18.4351 23.1268C18.4351 23.1401 18.4351 23.1534 18.4351 23.1667C18.3819 23.18 18.3287 23.1933 18.2754 23.2066C18.2621 23.2333 18.2488 23.2602 18.2355 23.2868C18.1556 23.3134 18.0758 23.34 17.9959 23.3666C17.9826 23.3936 17.9693 23.4202 17.9559 23.4468C17.9027 23.4598 17.8495 23.4734 17.7962 23.4865C17.7962 23.5 17.7962 23.5134 17.7962 23.5267C17.7429 23.54 17.6897 23.5533 17.6364 23.5666C17.6364 23.5799 17.6364 23.5932 17.6364 23.6066C17.5966 23.6066 17.5566 23.6066 17.5166 23.6066C17.5166 23.6199 17.5166 23.6335 17.5166 23.6468C17.49 23.6468 17.4634 23.6468 17.4368 23.6468C17.4368 23.6601 17.4368 23.6734 17.4368 23.6864C17.3835 23.7 17.3303 23.7131 17.2771 23.7266C17.2771 23.7397 17.2771 23.7532 17.2771 23.7666C17.2371 23.7666 17.1971 23.7666 17.1573 23.7666C17.1573 23.7802 17.1573 23.7932 17.1573 23.8068C17.1306 23.8068 17.104 23.8068 17.0774 23.8068C17.0774 23.8198 17.0774 23.8334 17.0774 23.8464C17.0108 23.86 16.9442 23.8731 16.8777 23.8867C16.8777 23.9 16.8777 23.9136 16.8777 23.9266C16.8378 23.9266 16.7978 23.9266 16.7579 23.9266C16.7579 23.9402 16.7579 23.9535 16.7579 23.9668C16.7179 23.9668 16.6781 23.9668 16.6381 23.9668C16.6381 23.9801 16.6381 23.9935 16.6381 24.0068C16.5982 24.0068 16.5582 24.0068 16.5183 24.0068C16.5183 24.0204 16.5183 24.0337 16.5183 24.047C16.4251 24.0603 16.3319 24.0736 16.2387 24.0869C16.2387 24.1002 16.2387 24.1135 16.2387 24.1266C16.1323 24.1402 16.0258 24.1538 15.9192 24.1671C15.9192 24.1801 15.9192 24.1937 15.9192 24.2067C15.8528 24.2067 15.7861 24.2067 15.7196 24.2067C15.7196 24.2203 15.7196 24.2333 15.7196 24.247C15.6531 24.247 15.5865 24.247 15.5199 24.247C15.5199 24.26 15.5199 24.2736 15.5199 24.2869C15.44 24.2869 15.3602 24.2869 15.2803 24.2869C15.2803 24.3005 15.2803 24.3135 15.2803 24.3271C15.1871 24.3271 15.0939 24.3271 15.0007 24.3271C15.0007 24.3401 15.0007 24.3537 15.0007 24.3668C14.8543 24.3668 14.7079 24.3668 14.5615 24.3668C14.1253 24.4886 13.0949 24.3951 12.7245 24.2869C12.6446 24.2869 12.5648 24.2869 12.4849 24.2869C12.0323 24.1671 11.5796 24.047 11.1271 23.9266C11.1271 23.9136 11.1271 23.9 11.1271 23.8867C11.1005 23.8867 11.0738 23.8867 11.0472 23.8867C11.0472 23.8731 11.0472 23.86 11.0472 23.8464C11.0073 23.8464 10.9674 23.8464 10.9274 23.8464C10.9274 23.8334 10.9274 23.8198 10.9274 23.8068C10.9008 23.8068 10.8742 23.8068 10.8476 23.8068C10.8476 23.7932 10.8476 23.7802 10.8476 23.7666C10.8076 23.7666 10.7677 23.7666 10.7277 23.7666C10.7277 23.7532 10.7277 23.7397 10.7277 23.7266C10.6745 23.7131 10.6213 23.7 10.568 23.6864C10.568 23.6734 10.568 23.6601 10.568 23.6468C10.5414 23.6468 10.5148 23.6468 10.4881 23.6468C10.4881 23.6335 10.4881 23.6199 10.4881 23.6066C10.3684 23.5666 10.2485 23.5267 10.1287 23.4865C10.1155 23.4598 10.1021 23.4332 10.0888 23.4066C10.0622 23.4066 10.0355 23.4066 10.0089 23.4066C10.0089 23.3936 10.0089 23.38 10.0089 23.3666C9.98232 23.3666 9.95562 23.3666 9.92901 23.3666C9.92901 23.3531 9.92901 23.34 9.92901 23.3264C9.9024 23.3264 9.87579 23.3264 9.84918 23.3264C9.84918 23.3134 9.84918 23.3001 9.84918 23.2868C9.82257 23.2868 9.79587 23.2868 9.76926 23.2868C9.756 23.2602 9.74265 23.2333 9.72939 23.2066C9.67608 23.1933 9.62289 23.18 9.56967 23.1667C9.55632 23.1401 9.54297 23.1134 9.52971 23.0865C9.5031 23.0865 9.47649 23.0865 9.44979 23.0865C9.43653 23.0599 9.42318 23.0333 9.40992 23.0067C9.38322 23.0067 9.35661 23.0067 9.33 23.0067C9.33 22.9933 9.33 22.98 9.33 22.9664C9.29004 22.9531 9.25017 22.9398 9.21021 22.9265C9.19686 22.9002 9.18363 22.8736 9.17028 22.8466C9.14367 22.8466 9.11706 22.8466 9.09045 22.8466C9.06384 22.8067 9.03714 22.7668 9.01053 22.7268C8.98392 22.7268 8.95731 22.7268 8.9307 22.7268C8.90409 22.6866 8.87739 22.6467 8.85078 22.6067C8.82417 22.6067 8.79756 22.6067 8.77095 22.6067C8.71764 22.5399 8.66445 22.4736 8.61123 22.4065C8.58462 22.4065 8.55792 22.4065 8.53131 22.4065C8.30508 22.1663 8.0787 21.9267 7.85247 21.6865C7.77255 21.6199 7.69263 21.5531 7.61283 21.4865C7.61283 21.4599 7.61283 21.4333 7.61283 21.4067C7.54626 21.3531 7.47969 21.2999 7.41312 21.2464C7.41312 21.2198 7.41312 21.1931 7.41312 21.1665C7.37325 21.1399 7.33329 21.1129 7.29333 21.0863C7.29333 21.0597 7.29333 21.0331 7.29333 21.0065C7.25337 20.9795 7.21353 20.9529 7.17357 20.9266C7.17357 20.9 7.17357 20.8733 7.17357 20.8464C7.14696 20.8331 7.12026 20.8198 7.09365 20.8065C7.09365 20.7799 7.09365 20.7532 7.09365 20.7263C7.06704 20.713 7.04043 20.6997 7.01382 20.6864C7.01382 20.6598 7.01382 20.6332 7.01382 20.6066C6.98721 20.5929 6.96051 20.5796 6.9339 20.5663C6.9339 20.54 6.9339 20.5134 6.9339 20.4867C6.90729 20.4731 6.88068 20.4598 6.85407 20.4462C6.84072 20.393 6.82746 20.3397 6.81411 20.2862C6.7875 20.2732 6.76089 20.2596 6.73428 20.2465C6.73428 20.2199 6.73428 20.193 6.73428 20.1664C6.72093 20.1664 6.70758 20.1664 6.69435 20.1664C6.69435 20.1398 6.69435 20.1131 6.69435 20.0865C6.68097 20.0865 6.66774 20.0865 6.65439 20.0865C6.65439 20.0596 6.65439 20.033 6.65439 20.0064C6.64113 20.0064 6.62778 20.0064 6.61443 20.0064C6.61443 19.9797 6.61443 19.9528 6.61443 19.9259C6.58782 19.9129 6.56121 19.8993 6.5346 19.8863C6.49464 19.7662 6.45468 19.6461 6.41481 19.5263C6.40146 19.5263 6.38811 19.5263 6.37485 19.5263C6.37485 19.4997 6.37485 19.473 6.37485 19.4464C6.3615 19.4464 6.34824 19.4464 6.33489 19.4464C6.32163 19.3929 6.30828 19.3396 6.29493 19.2861C6.28167 19.2861 6.26832 19.2861 6.25506 19.2861C6.25506 19.2464 6.25506 19.2062 6.25506 19.1663C6.24171 19.1663 6.22836 19.1663 6.2151 19.1663C6.2151 19.1397 6.2151 19.1131 6.2151 19.0864C6.20175 19.0864 6.18852 19.0864 6.17517 19.0864C6.17517 19.0462 6.17517 19.0063 6.17517 18.966C6.16191 18.966 6.14856 18.966 6.13521 18.966C6.13521 18.9397 6.13521 18.9131 6.13521 18.8862C6.12195 18.8862 6.1086 18.8862 6.09534 18.8862C6.09534 18.8462 6.09534 18.8063 6.09534 18.7661C6.08199 18.7661 6.06864 18.7661 6.05538 18.7661C6.05538 18.7262 6.05538 18.6862 6.05538 18.6463C6.04203 18.6463 6.02877 18.6463 6.01542 18.6463C6.01542 18.6061 6.01542 18.5661 6.01542 18.5265C6.00216 18.5265 5.98881 18.5265 5.97546 18.5265C5.97546 18.473 5.97546 18.4197 5.97546 18.3661C5.9622 18.3661 5.94885 18.3661 5.93559 18.3661C5.93559 18.3259 5.93559 18.2863 5.93559 18.2461C5.92224 18.2461 5.90889 18.2461 5.89563 18.2461C5.8158 17.8325 5.73588 17.419 5.65599 17.0058C5.65599 16.8593 5.65599 16.7126 5.65599 16.5662C5.64273 16.5662 5.62938 16.5662 5.61612 16.5662C5.56224 16.3723 5.61648 15.5866 5.65599 15.4457C5.65599 15.2993 5.65599 15.1523 5.65599 15.0059C5.73657 14.7214 5.76813 14.3548 5.85567 14.0856C5.85567 14.0324 5.85567 13.9789 5.85567 13.9256C5.86902 13.9256 5.88228 13.9256 5.89563 13.9256C5.89563 13.8724 5.89563 13.8191 5.89563 13.7656C5.90889 13.7656 5.92224 13.7656 5.93559 13.7656C5.93559 13.7257 5.93559 13.6857 5.93559 13.6458C5.94885 13.6458 5.9622 13.6458 5.97546 13.6458C5.97546 13.5923 5.97546 13.539 5.97546 13.4854C5.98881 13.4854 6.00216 13.4854 6.01542 13.4854C6.01542 13.4455 6.01542 13.4056 6.01542 13.3654C6.02877 13.3654 6.04203 13.3654 6.05538 13.3654C6.05538 13.3254 6.05538 13.2858 6.05538 13.2456C6.06864 13.2456 6.08199 13.2456 6.09534 13.2456C6.09534 13.2056 6.09534 13.1654 6.09534 13.1257C6.1086 13.1257 6.12195 13.1257 6.13521 13.1257C6.13521 13.0988 6.13521 13.0722 6.13521 13.0456C6.14856 13.0456 6.16191 13.0456 6.17517 13.0456C6.17517 13.0054 6.17517 12.9655 6.17517 12.9255C6.18852 12.9255 6.20175 12.9255 6.2151 12.9255C6.2151 12.8989 6.2151 12.8723 6.2151 12.8456C6.22836 12.8456 6.24171 12.8456 6.25506 12.8456C6.25506 12.8054 6.25506 12.7655 6.25506 12.7255C6.26832 12.7255 6.28167 12.7255 6.29493 12.7255C6.30828 12.672 6.32163 12.6188 6.33489 12.5652C6.34824 12.5652 6.3615 12.5652 6.37485 12.5652C6.37485 12.5389 6.37485 12.5123 6.37485 12.4856C6.38811 12.4856 6.40146 12.4856 6.41481 12.4856C6.41481 12.4451 6.41481 12.4055 6.41481 12.3653C6.42807 12.3653 6.44142 12.3653 6.45468 12.3653C6.46803 12.3117 6.48138 12.2585 6.49464 12.2052C6.50799 12.2052 6.52125 12.2052 6.5346 12.2052C6.5346 12.1783 6.5346 12.1517 6.5346 12.1254C6.56121 12.1121 6.58782 12.0988 6.61443 12.0854C6.61443 12.0585 6.61443 12.0319 6.61443 12.0053C6.62778 12.0053 6.64113 12.0053 6.65439 12.0053C6.65439 11.9787 6.65439 11.952 6.65439 11.9251C6.66774 11.9251 6.68097 11.9251 6.69435 11.9251C6.69435 11.8985 6.69435 11.8719 6.69435 11.8453C6.70758 11.8453 6.72093 11.8453 6.73428 11.8453C6.73428 11.8186 6.73428 11.7917 6.73428 11.7651C6.76089 11.7521 6.7875 11.7388 6.81411 11.7254C6.82746 11.6722 6.84072 11.6187 6.85407 11.5654C6.86733 11.5654 6.88068 11.5654 6.89403 11.5654C6.90729 11.5252 6.92064 11.4853 6.9339 11.4456C6.96051 11.432 6.98721 11.419 7.01382 11.4051C7.01382 11.3785 7.01382 11.3521 7.01382 11.3255C7.02708 11.3255 7.04043 11.3255 7.05378 11.3255C7.06704 11.2853 7.08039 11.2454 7.09365 11.2051C7.12026 11.1921 7.14696 11.1785 7.17357 11.1655C7.17357 11.1386 7.17357 11.112 7.17357 11.0853C7.21353 11.0587 7.25337 11.0321 7.29333 11.0052C7.29333 10.9786 7.29333 10.952 7.29333 10.9253C7.33329 10.8987 7.37325 10.8718 7.41312 10.8451C7.41312 10.8185 7.41312 10.7919 7.41312 10.7653C7.47969 10.7117 7.54626 10.6585 7.61283 10.605C7.61283 10.5784 7.61283 10.552 7.61283 10.5254C7.77255 10.3787 7.9323 10.2319 8.09205 10.0852C8.23842 9.9252 8.38491 9.76518 8.53131 9.60516C8.55792 9.60516 8.58462 9.60516 8.61123 9.60516C8.66445 9.53859 8.71764 9.47175 8.77095 9.40521C8.79756 9.40521 8.82417 9.40521 8.85078 9.40521C8.87739 9.36525 8.90409 9.32505 8.9307 9.28509C8.95731 9.28509 8.98392 9.28509 9.01053 9.28509C9.03714 9.24489 9.06384 9.20523 9.09045 9.165C9.11706 9.165 9.14367 9.165 9.17028 9.165C9.18363 9.13809 9.19686 9.11148 9.21021 9.08484C9.25017 9.07182 9.29004 9.05823 9.33 9.04521C9.33 9.03162 9.33 9.0183 9.33 9.00468C9.35661 9.00468 9.38322 9.00468 9.40992 9.00468C9.42318 8.97807 9.43653 8.95173 9.44979 8.92512C9.48975 8.9118 9.52971 8.89848 9.56967 8.88489C9.56967 8.87157 9.56967 8.85828 9.56967 8.84496C9.62289 8.83164 9.67608 8.81832 9.72939 8.80503C9.74265 8.77839 9.756 8.75148 9.76926 8.72487C9.84918 8.69823 9.92901 8.67162 10.0089 8.64498C10.0089 8.63139 10.0089 8.61807 10.0089 8.60478C10.0355 8.60478 10.0622 8.60478 10.0888 8.60478C10.1021 8.57814 10.1155 8.55153 10.1287 8.52489C10.2485 8.48496 10.3684 8.44473 10.4881 8.4051C10.4881 8.39178 10.4881 8.37846 10.4881 8.36487C10.5148 8.36487 10.5414 8.36487 10.568 8.36487C10.568 8.35155 10.568 8.33826 10.568 8.32494C10.6213 8.31162 10.6745 8.29833 10.7277 8.28501C10.7277 8.27169 10.7277 8.25837 10.7277 8.24478C10.7677 8.24478 10.8076 8.24478 10.8476 8.24478C10.8476 8.23146 10.8476 8.21817 10.8476 8.20485C10.8742 8.20485 10.9008 8.20485 10.9274 8.20485C10.9274 8.19153 10.9274 8.17851 10.9274 8.16492C10.9674 8.16492 11.0073 8.16492 11.0472 8.16492C11.0472 8.1519 11.0472 8.13828 11.0472 8.12526C11.0738 8.12526 11.1005 8.12526 11.1271 8.12526C11.1271 8.11137 11.1271 8.09835 11.1271 8.08476C11.167 8.08476 11.2069 8.08476 11.2469 8.08476C11.2469 8.07174 11.2469 8.05812 11.2469 8.0451C11.2868 8.0451 11.3268 8.0451 11.3667 8.0451C11.3667 8.03151 11.3667 8.01849 11.3667 8.00487C11.4066 8.00487 11.4466 8.00487 11.4865 8.00487C11.4865 7.99185 11.4865 7.97796 11.4865 7.96494C11.5796 7.95135 11.6729 7.93833 11.7661 7.92474C11.7661 7.91169 11.7661 7.8981 11.7661 7.88508C11.8193 7.88508 11.8725 7.88508 11.9258 7.88508C11.9258 7.87149 11.9258 7.85847 11.9258 7.84485C11.979 7.84485 12.0322 7.84485 12.0856 7.84485C12.0856 7.83156 12.0856 7.81851 12.0856 7.80492C12.1521 7.80492 12.2187 7.80492 12.2851 7.80492C12.2851 7.7919 12.2851 7.77831 12.2851 7.76529C12.3517 7.76529 12.4183 7.76529 12.4849 7.76529C12.4849 7.75167 12.4849 7.73865 12.4849 7.72476C12.5648 7.72476 12.6446 7.72476 12.7245 7.72476C12.7245 7.71174 12.7245 7.69815 12.7245 7.68513C12.8177 7.68513 12.9109 7.68513 13.004 7.68513C13.004 7.67151 13.004 7.65849 13.004 7.6449C13.1504 7.6449 13.2969 7.6449 13.4433 7.6449C13.5838 7.60584 14.369 7.55085 14.5615 7.60524C14.5615 7.61826 14.5615 7.63188 14.5615 7.6449C14.7079 7.6449 14.8543 7.6449 15.0007 7.6449C15.0007 7.65849 15.0007 7.67151 15.0007 7.68513C15.0939 7.68513 15.1871 7.68513 15.2803 7.68513C15.2803 7.69815 15.2803 7.71174 15.2803 7.72476C15.3602 7.72476 15.44 7.72476 15.5199 7.72476C15.5199 7.73865 15.5199 7.75167 15.5199 7.76529C15.5865 7.76529 15.6531 7.76529 15.7196 7.76529C15.7196 7.77831 15.7196 7.7919 15.7196 7.80492C15.8394 7.81851 15.9592 7.83156 16.079 7.84485C16.079 7.85847 16.079 7.87149 16.079 7.88508C16.1323 7.88508 16.1855 7.88508 16.2387 7.88508C16.2387 7.8981 16.2387 7.91169 16.2387 7.92474C16.3319 7.93833 16.4251 7.95135 16.5183 7.96494C16.5183 7.97796 16.5183 7.99185 16.5183 8.00487C16.5582 8.00487 16.5982 8.00487 16.6381 8.00487C16.6381 8.01849 16.6381 8.03151 16.6381 8.0451C16.6781 8.0451 16.7179 8.0451 16.7579 8.0451C16.7579 8.05812 16.7579 8.07174 16.7579 8.08476C16.7978 8.08476 16.8378 8.08476 16.8777 8.08476C16.8777 8.09835 16.8777 8.11137 16.8777 8.12526C16.9043 8.12526 16.931 8.12526 16.9576 8.12526C16.9576 8.13828 16.9576 8.1519 16.9576 8.16492C17.1047 8.22945 17.2581 8.21382 17.3569 8.32494C17.3436 8.32494 17.3303 8.32494 17.3169 8.32494C17.2556 8.43201 17.1603 8.48208 17.0774 8.56512C16.9176 8.72487 16.7579 8.88489 16.5982 9.04521C16.4518 9.20523 16.3053 9.36525 16.1589 9.525C16.0923 9.57855 16.0258 9.63177 15.9592 9.68502C15.9592 9.71193 15.9592 9.73857 15.9592 9.76518C15.9192 9.7782 15.8794 9.79182 15.8394 9.80484C15.8261 9.83175 15.8128 9.85836 15.7994 9.885C15.7329 9.93825 15.6663 9.99177 15.5998 10.045C15.5333 10.1388 15.4666 10.2319 15.4001 10.3249C15.3735 10.3249 15.3468 10.3249 15.3202 10.3249C15.1605 10.4988 15.0007 10.6718 14.841 10.8451C14.708 10.8451 14.5747 10.8451 14.4417 10.8451C14.3916 10.8003 13.6922 10.7682 13.5631 10.8052C13.5631 10.8185 13.5631 10.8318 13.5631 10.8451C13.4433 10.8451 13.3235 10.8451 13.2037 10.8451C13.2037 10.8585 13.2037 10.8718 13.2037 10.8854C13.1372 10.8854 13.0706 10.8854 13.004 10.8854C13.004 10.8987 13.004 10.912 13.004 10.9253C12.9375 10.9253 12.8709 10.9253 12.8043 10.9253C12.8043 10.9386 12.8043 10.9519 12.8043 10.965C12.7511 10.965 12.6978 10.965 12.6446 10.965C12.6446 10.9786 12.6446 10.9916 12.6446 11.0052C12.6047 11.0052 12.5648 11.0052 12.5248 11.0052C12.5248 11.0185 12.5248 11.0321 12.5248 11.0451C12.4716 11.0451 12.4183 11.0451 12.3651 11.0451C12.3651 11.0587 12.3651 11.0717 12.3651 11.0853C12.3385 11.0853 12.3118 11.0853 12.2851 11.0853C12.2851 11.0984 12.2851 11.112 12.2851 11.125C12.2053 11.1386 12.1254 11.1519 12.0456 11.1655C12.0456 11.1785 12.0456 11.1921 12.0456 11.2051C11.9924 11.2187 11.9391 11.2318 11.8858 11.2454C11.8858 11.2584 11.8858 11.272 11.8858 11.2853C11.8459 11.2853 11.8059 11.2853 11.7661 11.2853C11.7661 11.2989 11.7661 11.3119 11.7661 11.3255C11.7394 11.3255 11.7128 11.3255 11.6861 11.3255C11.6861 11.3386 11.6861 11.3521 11.6861 11.3652C11.6596 11.3652 11.633 11.3652 11.6063 11.3652C11.593 11.3921 11.5797 11.419 11.5664 11.4456C11.4865 11.4719 11.4066 11.4986 11.3267 11.5252C11.3134 11.5521 11.3001 11.5787 11.2868 11.6053C11.2335 11.6187 11.1803 11.632 11.1271 11.6453C11.1005 11.6855 11.0738 11.7254 11.0472 11.7651C11.0206 11.7651 10.994 11.7651 10.9674 11.7651C10.954 11.7917 10.9408 11.8186 10.9274 11.8453C10.9008 11.8453 10.8742 11.8453 10.8476 11.8453C10.8076 11.8985 10.7677 11.952 10.7277 12.0053C9.98145 12.5441 9.47352 13.3448 9.09045 14.2454C9.0771 14.3391 9.06375 14.4323 9.05049 14.5258C9.03714 14.5258 9.02388 14.5258 9.01053 14.5258C9.01053 14.5657 9.01053 14.6057 9.01053 14.6456C8.99727 14.6456 8.98392 14.6456 8.97057 14.6456C8.97057 14.6991 8.97057 14.7524 8.97057 14.8056C8.95731 14.8056 8.94396 14.8056 8.9307 14.8056C8.9307 14.8725 8.9307 14.9387 8.9307 15.0059C8.76657 15.5459 8.7642 16.4661 8.9307 17.0058C8.94396 17.1262 8.95731 17.246 8.97057 17.3663C8.98392 17.3663 8.99727 17.3663 9.01053 17.3663C9.01053 17.406 9.01053 17.4459 9.01053 17.4862C9.02388 17.4862 9.03714 17.4862 9.05049 17.4862C9.06375 17.5793 9.0771 17.6728 9.09045 17.766C9.10371 17.766 9.11706 17.766 9.13032 17.766C9.13032 17.7926 9.13032 17.8192 9.13032 17.8461C9.14367 17.8461 9.15702 17.8461 9.17028 17.8461C9.17028 17.8861 9.17028 17.926 9.17028 17.966C9.18363 17.966 9.19686 17.966 9.21021 17.966C9.22347 18.0195 9.23682 18.0727 9.25017 18.1263C9.26343 18.1263 9.27678 18.1263 9.29004 18.1263C9.33 18.2461 9.36996 18.3661 9.40992 18.486C9.43653 18.4996 9.46314 18.5129 9.48975 18.5265C9.5031 18.5794 9.51636 18.6327 9.52971 18.6862C9.55632 18.6995 9.58293 18.7128 9.60954 18.7262C9.62289 18.7797 9.63624 18.8329 9.6495 18.8862C9.68946 18.9131 9.72939 18.9397 9.76926 18.966C9.78261 19.0063 9.79596 19.0462 9.80922 19.0864C9.82257 19.0864 9.83583 19.0864 9.84918 19.0864C9.84918 19.1131 9.84918 19.1397 9.84918 19.1663C9.9024 19.2062 9.95571 19.2464 10.0089 19.2861C10.6594 20.1919 11.6209 20.7121 12.8043 21.0863C12.8709 21.0863 12.9375 21.0863 13.004 21.0863C13.004 21.0996 13.004 21.1129 13.004 21.1266C13.0706 21.1266 13.1372 21.1266 13.2037 21.1266C13.2037 21.1399 13.2037 21.1532 13.2037 21.1665C13.3235 21.1665 13.4433 21.1665 13.5631 21.1665C13.5631 21.1798 13.5631 21.1931 13.5631 21.2064C13.7592 21.2614 14.3027 21.2056 14.4417 21.1665C14.5615 21.1665 14.6812 21.1665 14.801 21.1665C14.801 21.1532 14.801 21.1399 14.801 21.1266C14.8676 21.1266 14.9342 21.1266 15.0007 21.1266C15.0007 21.1129 15.0007 21.0996 15.0007 21.0863C15.0673 21.0863 15.1339 21.0863 15.2004 21.0863C15.2004 21.0733 15.2004 21.0597 15.2004 21.0467C15.2536 21.0467 15.307 21.0467 15.3602 21.0467C15.3602 21.0331 15.3602 21.0201 15.3602 21.0065C15.4001 21.0065 15.44 21.0065 15.48 21.0065C15.48 20.9932 15.48 20.9795 15.48 20.9665C15.5332 20.9665 15.5865 20.9665 15.6397 20.9665C15.6397 20.9529 15.6397 20.9399 15.6397 20.9266C15.6663 20.9266 15.6929 20.9266 15.7196 20.9266C15.7196 20.9133 15.7196 20.9 15.7196 20.8867C15.7994 20.8733 15.8794 20.8597 15.9592 20.8464C15.9592 20.8331 15.9592 20.8198 15.9592 20.8065C16.0124 20.7932 16.0657 20.7799 16.1189 20.7666C16.1189 20.7532 16.1189 20.7399 16.1189 20.7263C16.2387 20.6864 16.3586 20.6465 16.4784 20.6066C16.4916 20.5796 16.505 20.553 16.5183 20.5264C16.5715 20.5134 16.6248 20.4998 16.6781 20.4867C16.6913 20.4598 16.7047 20.4332 16.7179 20.4066C16.7445 20.4066 16.7712 20.4066 16.7978 20.4066C16.7978 20.393 16.7978 20.38 16.7978 20.3663C16.8245 20.3663 16.8511 20.3663 16.8777 20.3663C16.9043 20.3264 16.931 20.2862 16.9576 20.2465C16.9842 20.2465 17.0108 20.2465 17.0374 20.2465C17.0508 20.2199 17.064 20.193 17.0774 20.1664C17.104 20.1664 17.1306 20.1664 17.1573 20.1664C17.1971 20.1131 17.2371 20.0596 17.2771 20.0064C17.3037 20.0064 17.3303 20.0064 17.3569 20.0064C17.4767 19.873 17.5966 19.7398 17.7163 19.6064C17.8095 19.5263 17.9027 19.4464 17.9959 19.3663C17.9959 19.3396 17.9959 19.313 17.9959 19.2861C18.0491 19.2464 18.1024 19.2062 18.1556 19.1663C18.1556 19.1397 18.1556 19.1131 18.1556 19.0864C18.1822 19.0728 18.2089 19.0598 18.2355 19.0462C18.2355 19.0193 18.2355 18.9927 18.2355 18.966C18.2754 18.9397 18.3153 18.9131 18.3553 18.8862C18.3553 18.8596 18.3553 18.8329 18.3553 18.8063C18.3685 18.8063 18.3819 18.8063 18.3953 18.8063C18.3953 18.7797 18.3953 18.7528 18.3953 18.7262C18.4219 18.7128 18.4485 18.6995 18.4751 18.6862C18.4884 18.6327 18.5017 18.5794 18.515 18.5265C18.5416 18.5129 18.5683 18.4996 18.5949 18.486C18.5949 18.4593 18.5949 18.4327 18.5949 18.4061C18.6082 18.4061 18.6216 18.4061 18.6348 18.4061C18.6482 18.3526 18.6614 18.2993 18.6748 18.2461C18.688 18.2461 18.7014 18.2461 18.7147 18.2461C18.7147 18.2061 18.7147 18.1659 18.7147 18.1263C18.728 18.1263 18.7413 18.1263 18.7546 18.1263C18.7679 18.0727 18.7813 18.0195 18.7945 17.966C18.8079 17.966 18.8212 17.966 18.8345 17.966C18.8478 17.8994 18.8611 17.8325 18.8745 17.766C18.8877 17.766 18.9011 17.766 18.9143 17.766C18.9277 17.6728 18.941 17.5793 18.9543 17.4862C18.9676 17.4862 18.9809 17.4862 18.9943 17.4862C18.9943 17.4459 18.9943 17.406 18.9943 17.3663C19.0075 17.3663 19.0209 17.3663 19.0342 17.3663C19.0342 17.3128 19.0342 17.2596 19.0342 17.2063C19.0475 17.2063 19.0608 17.2063 19.0741 17.2063C19.0741 17.1392 19.0741 17.0729 19.0741 17.0058C19.0874 17.0058 19.1008 17.0058 19.114 17.0058C19.114 16.9395 19.114 16.8727 19.114 16.8061C19.1274 16.8061 19.1406 16.8061 19.154 16.8061C19.154 16.686 19.154 16.5662 19.154 16.4458C19.2575 16.0771 19.1544 15.6003 19.154 15.2055C19.2472 15.1393 19.3403 15.0722 19.4335 15.0059C19.4469 14.9659 19.4601 14.9257 19.4735 14.8858C19.6332 14.7524 19.7929 14.619 19.9527 14.4856C19.9527 14.459 19.9527 14.4323 19.9527 14.4054C19.966 14.4054 19.9793 14.4054 19.9927 14.4054C20.0459 14.3391 20.0991 14.272 20.1524 14.2057C20.179 14.2057 20.2056 14.2057 20.2322 14.2057C20.2456 14.1791 20.2588 14.1522 20.2722 14.1256C20.2854 14.1256 20.2988 14.1256 20.3121 14.1256C20.4319 13.9792 20.5517 13.8321 20.6715 13.6857C20.6981 13.6857 20.7248 13.6857 20.7514 13.6857C20.778 13.6458 20.8046 13.6056 20.8312 13.5656C20.8578 13.5523 20.8845 13.539 20.9111 13.5257C20.9111 13.4988 20.9111 13.4722 20.9111 13.4455C20.991 13.379 21.0709 13.3124 21.1507 13.2456C21.164 13.2187 21.1773 13.192 21.1907 13.1654C21.2173 13.1654 21.2439 13.1654 21.2705 13.1654C21.2972 13.1258 21.3238 13.0853 21.3504 13.0456C21.377 13.032 21.4036 13.019 21.4302 13.0054C21.4302 12.9791 21.4302 12.9518 21.4302 12.9255C21.4436 12.9255 21.4569 12.9255 21.4702 12.9255C21.5234 12.859 21.5767 12.7921 21.6299 12.7255C21.6699 12.7255 21.7098 12.7255 21.7497 12.7255Z" fill="white"/>
</svg>
